  0
SECTION
  2
BLOCKS
  0
ENDSEC
  0
SECTION
  2
ENTITIES
  0
LINE
  8
0
 10
88.598
 20
57.102
 11
-3
 21
57.102
  0
LINE
  8
0
 10
-3
 20
57.102
 11
-3
 21
-3
  0
LINE
  8
0
 10
-3
 20
-3
 11
88.598
 21
-3
  0
LINE
  8
0
 10
88.598
 20
-3
 11
88.598
 21
57.102
  0
LINE
  8
0
 10
2.08746
 20
50.1244
 11
1.66931
 21
50.3375
  0
LINE
  8
0
 10
1.66931
 20
50.3375
 11
1.33746
 21
50.6693
  0
LINE
  8
0
 10
1.33746
 20
50.6693
 11
1.1244
 21
51.0875
  0
LINE
  8
0
 10
1.1244
 20
51.0875
 11
1.05099
 21
51.551
  0
LINE
  8
0
 10
1.05099
 20
51.551
 11
1.1244
 21
52.0145
  0
LINE
  8
0
 10
1.1244
 20
52.0145
 11
1.33746
 21
52.4327
  0
LINE
  8
0
 10
1.33746
 20
52.4327
 11
1.66931
 21
52.7645
  0
LINE
  8
0
 10
1.66931
 20
52.7645
 11
2.08746
 21
52.9776
  0
LINE
  8
0
 10
2.08746
 20
52.9776
 11
2.55099
 21
53.051
  0
LINE
  8
0
 10
2.55099
 20
53.051
 11
3.01451
 21
52.9776
  0
LINE
  8
0
 10
3.01451
 20
52.9776
 11
3.43266
 21
52.7645
  0
LINE
  8
0
 10
3.43266
 20
52.7645
 11
3.76451
 21
52.4327
  0
LINE
  8
0
 10
3.76451
 20
52.4327
 11
3.97757
 21
52.0145
  0
LINE
  8
0
 10
3.97757
 20
52.0145
 11
4.05099
 21
51.551
  0
LINE
  8
0
 10
4.05099
 20
51.551
 11
3.97757
 21
51.0875
  0
LINE
  8
0
 10
3.97757
 20
51.0875
 11
3.76451
 21
50.6693
  0
LINE
  8
0
 10
3.76451
 20
50.6693
 11
3.43266
 21
50.3375
  0
LINE
  8
0
 10
3.43266
 20
50.3375
 11
3.01451
 21
50.1244
  0
LINE
  8
0
 10
3.01451
 20
50.1244
 11
2.55099
 21
50.051
  0
LINE
  8
0
 10
2.55099
 20
50.051
 11
2.08746
 21
50.1244
  0
LINE
  8
0
 10
60.0875
 20
50.1244
 11
59.6693
 21
50.3375
  0
LINE
  8
0
 10
59.6693
 20
50.3375
 11
59.3375
 21
50.6693
  0
LINE
  8
0
 10
59.3375
 20
50.6693
 11
59.1244
 21
51.0875
  0
LINE
  8
0
 10
59.1244
 20
51.0875
 11
59.051
 21
51.551
  0
LINE
  8
0
 10
59.051
 20
51.551
 11
59.1244
 21
52.0145
  0
LINE
  8
0
 10
59.1244
 20
52.0145
 11
59.3375
 21
52.4327
  0
LINE
  8
0
 10
59.3375
 20
52.4327
 11
59.6693
 21
52.7645
  0
LINE
  8
0
 10
59.6693
 20
52.7645
 11
60.0875
 21
52.9776
  0
LINE
  8
0
 10
60.0875
 20
52.9776
 11
60.551
 21
53.051
  0
LINE
  8
0
 10
60.551
 20
53.051
 11
61.0145
 21
52.9776
  0
LINE
  8
0
 10
61.0145
 20
52.9776
 11
61.4327
 21
52.7645
  0
LINE
  8
0
 10
61.4327
 20
52.7645
 11
61.7645
 21
52.4327
  0
LINE
  8
0
 10
61.7645
 20
52.4327
 11
61.9776
 21
52.0145
  0
LINE
  8
0
 10
61.9776
 20
52.0145
 11
62.051
 21
51.551
  0
LINE
  8
0
 10
62.051
 20
51.551
 11
61.9776
 21
51.0875
  0
LINE
  8
0
 10
61.9776
 20
51.0875
 11
61.7645
 21
50.6693
  0
LINE
  8
0
 10
61.7645
 20
50.6693
 11
61.4327
 21
50.3375
  0
LINE
  8
0
 10
61.4327
 20
50.3375
 11
61.0145
 21
50.1244
  0
LINE
  8
0
 10
61.0145
 20
50.1244
 11
60.551
 21
50.051
  0
LINE
  8
0
 10
60.551
 20
50.051
 11
60.0875
 21
50.1244
  0
LINE
  8
0
 10
2.08746
 20
1.1244
 11
1.66931
 21
1.33746
  0
LINE
  8
0
 10
1.66931
 20
1.33746
 11
1.33746
 21
1.66931
  0
LINE
  8
0
 10
1.33746
 20
1.66931
 11
1.1244
 21
2.08746
  0
LINE
  8
0
 10
1.1244
 20
2.08746
 11
1.05099
 21
2.55099
  0
LINE
  8
0
 10
1.05099
 20
2.55099
 11
1.1244
 21
3.01451
  0
LINE
  8
0
 10
1.1244
 20
3.01451
 11
1.33746
 21
3.43266
  0
LINE
  8
0
 10
1.33746
 20
3.43266
 11
1.66931
 21
3.76451
  0
LINE
  8
0
 10
1.66931
 20
3.76451
 11
2.08746
 21
3.97757
  0
LINE
  8
0
 10
2.08746
 20
3.97757
 11
2.55099
 21
4.05099
  0
LINE
  8
0
 10
2.55099
 20
4.05099
 11
3.01451
 21
3.97757
  0
LINE
  8
0
 10
3.01451
 20
3.97757
 11
3.43266
 21
3.76451
  0
LINE
  8
0
 10
3.43266
 20
3.76451
 11
3.76451
 21
3.43266
  0
LINE
  8
0
 10
3.76451
 20
3.43266
 11
3.97757
 21
3.01451
  0
LINE
  8
0
 10
3.97757
 20
3.01451
 11
4.05099
 21
2.55099
  0
LINE
  8
0
 10
4.05099
 20
2.55099
 11
3.97757
 21
2.08746
  0
LINE
  8
0
 10
3.97757
 20
2.08746
 11
3.76451
 21
1.66931
  0
LINE
  8
0
 10
3.76451
 20
1.66931
 11
3.43266
 21
1.33746
  0
LINE
  8
0
 10
3.43266
 20
1.33746
 11
3.01451
 21
1.1244
  0
LINE
  8
0
 10
3.01451
 20
1.1244
 11
2.55099
 21
1.05099
  0
LINE
  8
0
 10
2.55099
 20
1.05099
 11
2.08746
 21
1.1244
  0
LINE
  8
0
 10
60.0875
 20
1.1244
 11
59.6693
 21
1.33746
  0
LINE
  8
0
 10
59.6693
 20
1.33746
 11
59.3375
 21
1.66931
  0
LINE
  8
0
 10
59.3375
 20
1.66931
 11
59.1244
 21
2.08746
  0
LINE
  8
0
 10
59.1244
 20
2.08746
 11
59.051
 21
2.55099
  0
LINE
  8
0
 10
59.051
 20
2.55099
 11
59.1244
 21
3.01451
  0
LINE
  8
0
 10
59.1244
 20
3.01451
 11
59.3375
 21
3.43266
  0
LINE
  8
0
 10
59.3375
 20
3.43266
 11
59.6693
 21
3.76451
  0
LINE
  8
0
 10
59.6693
 20
3.76451
 11
60.0875
 21
3.97757
  0
LINE
  8
0
 10
60.0875
 20
3.97757
 11
60.551
 21
4.05099
  0
LINE
  8
0
 10
60.551
 20
4.05099
 11
61.0145
 21
3.97757
  0
LINE
  8
0
 10
61.0145
 20
3.97757
 11
61.4327
 21
3.76451
  0
LINE
  8
0
 10
61.4327
 20
3.76451
 11
61.7645
 21
3.43266
  0
LINE
  8
0
 10
61.7645
 20
3.43266
 11
61.9776
 21
3.01451
  0
LINE
  8
0
 10
61.9776
 20
3.01451
 11
62.051
 21
2.55099
  0
LINE
  8
0
 10
62.051
 20
2.55099
 11
61.9776
 21
2.08746
  0
LINE
  8
0
 10
61.9776
 20
2.08746
 11
61.7645
 21
1.66931
  0
LINE
  8
0
 10
61.7645
 20
1.66931
 11
61.4327
 21
1.33746
  0
LINE
  8
0
 10
61.4327
 20
1.33746
 11
61.0145
 21
1.1244
  0
LINE
  8
0
 10
61.0145
 20
1.1244
 11
60.551
 21
1.05099
  0
LINE
  8
0
 10
60.551
 20
1.05099
 11
60.0875
 21
1.1244
  0
ENDSEC
  0
SECTION
  2
OBJECTS
  0
DICTIONARY
  0
ENDSEC
  0
EOF
