  0
SECTION
  2
BLOCKS
  0
ENDSEC
  0
SECTION
  2
ENTITIES
  0
LINE
  8
0
 10
88.598
 20
57.102
 11
58
 21
57.102
  0
LINE
  8
0
 10
58
 20
57.102
 11
58
 21
48.102
  0
LINE
  8
0
 10
58
 20
48.102
 11
5.55099
 21
48.102
  0
LINE
  8
0
 10
5.55099
 20
48.102
 11
5.55099
 21
57.102
  0
LINE
  8
0
 10
5.55099
 20
57.102
 11
-3
 21
57.102
  0
LINE
  8
0
 10
-3
 20
57.102
 11
-3
 21
-3
  0
LINE
  8
0
 10
-3
 20
-3
 11
88.598
 21
-3
  0
LINE
  8
0
 10
88.598
 20
-3
 11
88.598
 21
57.102
  0
LINE
  8
0
 10
2.08746
 20
50.1244
 11
1.66931
 21
50.3375
  0
LINE
  8
0
 10
1.66931
 20
50.3375
 11
1.33746
 21
50.6693
  0
LINE
  8
0
 10
1.33746
 20
50.6693
 11
1.1244
 21
51.0875
  0
LINE
  8
0
 10
1.1244
 20
51.0875
 11
1.05099
 21
51.551
  0
LINE
  8
0
 10
1.05099
 20
51.551
 11
1.1244
 21
52.0145
  0
LINE
  8
0
 10
1.1244
 20
52.0145
 11
1.33746
 21
52.4327
  0
LINE
  8
0
 10
1.33746
 20
52.4327
 11
1.66931
 21
52.7645
  0
LINE
  8
0
 10
1.66931
 20
52.7645
 11
2.08746
 21
52.9776
  0
LINE
  8
0
 10
2.08746
 20
52.9776
 11
2.55099
 21
53.051
  0
LINE
  8
0
 10
2.55099
 20
53.051
 11
3.01451
 21
52.9776
  0
LINE
  8
0
 10
3.01451
 20
52.9776
 11
3.43266
 21
52.7645
  0
LINE
  8
0
 10
3.43266
 20
52.7645
 11
3.76451
 21
52.4327
  0
LINE
  8
0
 10
3.76451
 20
52.4327
 11
3.97757
 21
52.0145
  0
LINE
  8
0
 10
3.97757
 20
52.0145
 11
4.05099
 21
51.551
  0
LINE
  8
0
 10
4.05099
 20
51.551
 11
3.97757
 21
51.0875
  0
LINE
  8
0
 10
3.97757
 20
51.0875
 11
3.76451
 21
50.6693
  0
LINE
  8
0
 10
3.76451
 20
50.6693
 11
3.43266
 21
50.3375
  0
LINE
  8
0
 10
3.43266
 20
50.3375
 11
3.01451
 21
50.1244
  0
LINE
  8
0
 10
3.01451
 20
50.1244
 11
2.55099
 21
50.051
  0
LINE
  8
0
 10
2.55099
 20
50.051
 11
2.08746
 21
50.1244
  0
LINE
  8
0
 10
60.0875
 20
50.1244
 11
59.6693
 21
50.3375
  0
LINE
  8
0
 10
59.6693
 20
50.3375
 11
59.3375
 21
50.6693
  0
LINE
  8
0
 10
59.3375
 20
50.6693
 11
59.1244
 21
51.0875
  0
LINE
  8
0
 10
59.1244
 20
51.0875
 11
59.051
 21
51.551
  0
LINE
  8
0
 10
59.051
 20
51.551
 11
59.1244
 21
52.0145
  0
LINE
  8
0
 10
59.1244
 20
52.0145
 11
59.3375
 21
52.4327
  0
LINE
  8
0
 10
59.3375
 20
52.4327
 11
59.6693
 21
52.7645
  0
LINE
  8
0
 10
59.6693
 20
52.7645
 11
60.0875
 21
52.9776
  0
LINE
  8
0
 10
60.0875
 20
52.9776
 11
60.551
 21
53.051
  0
LINE
  8
0
 10
60.551
 20
53.051
 11
61.0145
 21
52.9776
  0
LINE
  8
0
 10
61.0145
 20
52.9776
 11
61.4327
 21
52.7645
  0
LINE
  8
0
 10
61.4327
 20
52.7645
 11
61.7645
 21
52.4327
  0
LINE
  8
0
 10
61.7645
 20
52.4327
 11
61.9776
 21
52.0145
  0
LINE
  8
0
 10
61.9776
 20
52.0145
 11
62.051
 21
51.551
  0
LINE
  8
0
 10
62.051
 20
51.551
 11
61.9776
 21
51.0875
  0
LINE
  8
0
 10
61.9776
 20
51.0875
 11
61.7645
 21
50.6693
  0
LINE
  8
0
 10
61.7645
 20
50.6693
 11
61.4327
 21
50.3375
  0
LINE
  8
0
 10
61.4327
 20
50.3375
 11
61.0145
 21
50.1244
  0
LINE
  8
0
 10
61.0145
 20
50.1244
 11
60.551
 21
50.051
  0
LINE
  8
0
 10
60.551
 20
50.051
 11
60.0875
 21
50.1244
  0
LINE
  8
0
 10
33.5366
 20
17.1787
 11
30.6738
 21
17.7872
  0
LINE
  8
0
 10
30.6738
 20
17.7872
 11
28
 21
18.9776
  0
LINE
  8
0
 10
28
 20
18.9776
 11
25.6322
 21
20.698
  0
LINE
  8
0
 10
25.6322
 20
20.698
 11
23.6738
 21
22.873
  0
LINE
  8
0
 10
23.6738
 20
22.873
 11
22.2104
 21
25.4077
  0
LINE
  8
0
 10
22.2104
 20
25.4077
 11
21.3059
 21
28.1912
  0
LINE
  8
0
 10
21.3059
 20
28.1912
 11
21
 21
31.102
  0
LINE
  8
0
 10
21
 20
31.102
 11
21.3059
 21
34.0127
  0
LINE
  8
0
 10
21.3059
 20
34.0127
 11
22.2104
 21
36.7963
  0
LINE
  8
0
 10
22.2104
 20
36.7963
 11
23.6738
 21
39.331
  0
LINE
  8
0
 10
23.6738
 20
39.331
 11
25.6322
 21
41.506
  0
LINE
  8
0
 10
25.6322
 20
41.506
 11
28
 21
43.2263
  0
LINE
  8
0
 10
28
 20
43.2263
 11
30.6738
 21
44.4168
  0
LINE
  8
0
 10
30.6738
 20
44.4168
 11
33.5366
 21
45.0253
  0
LINE
  8
0
 10
33.5366
 20
45.0253
 11
36.4634
 21
45.0253
  0
LINE
  8
0
 10
36.4634
 20
45.0253
 11
39.3262
 21
44.4168
  0
LINE
  8
0
 10
39.3262
 20
44.4168
 11
42
 21
43.2263
  0
LINE
  8
0
 10
42
 20
43.2263
 11
44.3678
 21
41.506
  0
LINE
  8
0
 10
44.3678
 20
41.506
 11
46.3262
 21
39.331
  0
LINE
  8
0
 10
46.3262
 20
39.331
 11
47.7896
 21
36.7963
  0
LINE
  8
0
 10
47.7896
 20
36.7963
 11
48.6941
 21
34.0127
  0
LINE
  8
0
 10
48.6941
 20
34.0127
 11
49
 21
31.102
  0
LINE
  8
0
 10
49
 20
31.102
 11
48.6941
 21
28.1912
  0
LINE
  8
0
 10
48.6941
 20
28.1912
 11
47.7896
 21
25.4077
  0
LINE
  8
0
 10
47.7896
 20
25.4077
 11
46.3262
 21
22.873
  0
LINE
  8
0
 10
46.3262
 20
22.873
 11
44.3678
 21
20.698
  0
LINE
  8
0
 10
44.3678
 20
20.698
 11
42
 21
18.9776
  0
LINE
  8
0
 10
42
 20
18.9776
 11
39.3262
 21
17.7872
  0
LINE
  8
0
 10
39.3262
 20
17.7872
 11
36.4634
 21
17.1787
  0
LINE
  8
0
 10
36.4634
 20
17.1787
 11
33.5366
 21
17.1787
  0
LINE
  8
0
 10
22.5365
 20
41.6754
 11
22.1183
 21
41.8885
  0
LINE
  8
0
 10
22.1183
 20
41.8885
 11
21.7865
 21
42.2203
  0
LINE
  8
0
 10
21.7865
 20
42.2203
 11
21.5734
 21
42.6385
  0
LINE
  8
0
 10
21.5734
 20
42.6385
 11
21.5
 21
43.102
  0
LINE
  8
0
 10
21.5
 20
43.102
 11
21.5734
 21
43.5655
  0
LINE
  8
0
 10
21.5734
 20
43.5655
 11
21.7865
 21
43.9837
  0
LINE
  8
0
 10
21.7865
 20
43.9837
 11
22.1183
 21
44.3155
  0
LINE
  8
0
 10
22.1183
 20
44.3155
 11
22.5365
 21
44.5286
  0
LINE
  8
0
 10
22.5365
 20
44.5286
 11
23
 21
44.602
  0
LINE
  8
0
 10
23
 20
44.602
 11
23.4635
 21
44.5286
  0
LINE
  8
0
 10
23.4635
 20
44.5286
 11
23.8817
 21
44.3155
  0
LINE
  8
0
 10
23.8817
 20
44.3155
 11
24.2135
 21
43.9837
  0
LINE
  8
0
 10
24.2135
 20
43.9837
 11
24.4266
 21
43.5655
  0
LINE
  8
0
 10
24.4266
 20
43.5655
 11
24.5
 21
43.102
  0
LINE
  8
0
 10
24.5
 20
43.102
 11
24.4266
 21
42.6385
  0
LINE
  8
0
 10
24.4266
 20
42.6385
 11
24.2135
 21
42.2203
  0
LINE
  8
0
 10
24.2135
 20
42.2203
 11
23.8817
 21
41.8885
  0
LINE
  8
0
 10
23.8817
 20
41.8885
 11
23.4635
 21
41.6754
  0
LINE
  8
0
 10
23.4635
 20
41.6754
 11
23
 21
41.602
  0
LINE
  8
0
 10
23
 20
41.602
 11
22.5365
 21
41.6754
  0
LINE
  8
0
 10
46.5365
 20
41.6754
 11
46.1183
 21
41.8885
  0
LINE
  8
0
 10
46.1183
 20
41.8885
 11
45.7865
 21
42.2203
  0
LINE
  8
0
 10
45.7865
 20
42.2203
 11
45.5734
 21
42.6385
  0
LINE
  8
0
 10
45.5734
 20
42.6385
 11
45.5
 21
43.102
  0
LINE
  8
0
 10
45.5
 20
43.102
 11
45.5734
 21
43.5655
  0
LINE
  8
0
 10
45.5734
 20
43.5655
 11
45.7865
 21
43.9837
  0
LINE
  8
0
 10
45.7865
 20
43.9837
 11
46.1183
 21
44.3155
  0
LINE
  8
0
 10
46.1183
 20
44.3155
 11
46.5365
 21
44.5286
  0
LINE
  8
0
 10
46.5365
 20
44.5286
 11
47
 21
44.602
  0
LINE
  8
0
 10
47
 20
44.602
 11
47.4635
 21
44.5286
  0
LINE
  8
0
 10
47.4635
 20
44.5286
 11
47.8817
 21
44.3155
  0
LINE
  8
0
 10
47.8817
 20
44.3155
 11
48.2135
 21
43.9837
  0
LINE
  8
0
 10
48.2135
 20
43.9837
 11
48.4266
 21
43.5655
  0
LINE
  8
0
 10
48.4266
 20
43.5655
 11
48.5
 21
43.102
  0
LINE
  8
0
 10
48.5
 20
43.102
 11
48.4266
 21
42.6385
  0
LINE
  8
0
 10
48.4266
 20
42.6385
 11
48.2135
 21
42.2203
  0
LINE
  8
0
 10
48.2135
 20
42.2203
 11
47.8817
 21
41.8885
  0
LINE
  8
0
 10
47.8817
 20
41.8885
 11
47.4635
 21
41.6754
  0
LINE
  8
0
 10
47.4635
 20
41.6754
 11
47
 21
41.602
  0
LINE
  8
0
 10
47
 20
41.602
 11
46.5365
 21
41.6754
  0
LINE
  8
0
 10
64.482
 20
39.979
 11
64.482
 21
40.369
  0
LINE
  8
0
 10
64.482
 20
40.369
 11
69.479
 21
42.392
  0
LINE
  8
0
 10
69.479
 20
42.392
 11
63.3
 21
42.392
  0
LINE
  8
0
 10
63.3
 20
42.392
 11
63.3
 21
43.879
  0
LINE
  8
0
 10
63.3
 20
43.879
 11
72.282
 21
43.879
  0
LINE
  8
0
 10
72.282
 20
43.879
 11
72.282
 21
42.392
  0
LINE
  8
0
 10
72.282
 20
42.392
 11
66.737
 21
39.979
  0
LINE
  8
0
 10
66.737
 20
39.979
 11
64.482
 21
39.979
  0
LINE
  8
0
 10
75
 20
42.367
 11
75
 21
43.83
  0
LINE
  8
0
 10
75
 20
43.83
 11
83.982
 21
43.83
  0
LINE
  8
0
 10
83.982
 20
43.83
 11
83.982
 21
42.367
  0
LINE
  8
0
 10
83.982
 20
42.367
 11
75
 21
42.367
  0
LINE
  8
0
 10
77.3021
 20
37.7724
 11
77.0295
 21
37.8068
  0
LINE
  8
0
 10
77.0295
 20
37.8068
 11
76.7781
 21
37.864
  0
LINE
  8
0
 10
76.7781
 20
37.864
 11
76.548
 21
37.944
  0
LINE
  8
0
 10
76.548
 20
37.944
 11
76.338
 21
38.0408
  0
LINE
  8
0
 10
76.338
 20
38.0408
 11
76.147
 21
38.1493
  0
LINE
  8
0
 10
76.147
 20
38.1493
 11
75.975
 21
38.2693
  0
LINE
  8
0
 10
75.975
 20
38.2693
 11
75.822
 21
38.401
  0
LINE
  8
0
 10
75.822
 20
38.401
 11
75.6866
 21
38.5411
  0
LINE
  8
0
 10
75.6866
 20
38.5411
 11
75.5662
 21
38.6873
  0
LINE
  8
0
 10
75.5662
 20
38.6873
 11
75.4611
 21
38.8396
  0
LINE
  8
0
 10
75.4611
 20
38.8396
 11
75.371
 21
38.998
  0
LINE
  8
0
 10
75.371
 20
38.998
 11
75.2939
 21
39.158
  0
LINE
  8
0
 10
75.2939
 20
39.158
 11
75.2267
 21
39.315
  0
LINE
  8
0
 10
75.2267
 20
39.315
 11
75.1694
 21
39.469
  0
LINE
  8
0
 10
75.1694
 20
39.469
 11
75.122
 21
39.62
  0
LINE
  8
0
 10
75.122
 20
39.62
 11
75.0836
 21
39.7649
  0
LINE
  8
0
 10
75.0836
 20
39.7649
 11
75.0535
 21
39.9015
  0
LINE
  8
0
 10
75.0535
 20
39.9015
 11
75.0316
 21
40.0299
  0
LINE
  8
0
 10
75.0316
 20
40.0299
 11
75.018
 21
40.15
  0
LINE
  8
0
 10
75.018
 20
40.15
 11
75.0101
 21
40.2556
  0
LINE
  8
0
 10
75.0101
 20
40.2556
 11
75.0045
 21
40.3415
  0
LINE
  8
0
 10
75.0045
 20
40.3415
 11
75.0011
 21
40.4076
  0
LINE
  8
0
 10
75.0011
 20
40.4076
 11
75
 21
40.454
  0
LINE
  8
0
 10
75
 20
40.454
 11
75
 21
41.868
  0
LINE
  8
0
 10
75
 20
41.868
 11
76.073
 21
41.868
  0
LINE
  8
0
 10
76.073
 20
41.868
 11
76.073
 21
40.539
  0
LINE
  8
0
 10
76.073
 20
40.539
 11
76.0989
 21
40.2336
  0
LINE
  8
0
 10
76.0989
 20
40.2336
 11
76.1765
 21
39.9633
  0
LINE
  8
0
 10
76.1765
 20
39.9633
 11
76.3059
 21
39.7281
  0
LINE
  8
0
 10
76.3059
 20
39.7281
 11
76.487
 21
39.528
  0
LINE
  8
0
 10
76.487
 20
39.528
 11
76.7115
 21
39.3679
  0
LINE
  8
0
 10
76.7115
 20
39.3679
 11
76.9712
 21
39.2535
  0
LINE
  8
0
 10
76.9712
 20
39.2535
 11
77.2661
 21
39.1849
  0
LINE
  8
0
 10
77.2661
 20
39.1849
 11
77.596
 21
39.162
  0
LINE
  8
0
 10
77.596
 20
39.162
 11
77.912
 21
39.1856
  0
LINE
  8
0
 10
77.912
 20
39.1856
 11
78.2022
 21
39.2565
  0
LINE
  8
0
 10
78.2022
 20
39.2565
 11
78.4666
 21
39.3746
  0
LINE
  8
0
 10
78.4666
 20
39.3746
 11
78.705
 21
39.54
  0
LINE
  8
0
 10
78.705
 20
39.54
 11
78.9023
 21
39.7511
  0
LINE
  8
0
 10
78.9023
 20
39.7511
 11
79.0432
 21
40.0063
  0
LINE
  8
0
 10
79.0432
 20
40.0063
 11
79.1278
 21
40.3056
  0
LINE
  8
0
 10
79.1278
 20
40.3056
 11
79.156
 21
40.649
  0
LINE
  8
0
 10
79.156
 20
40.649
 11
79.156
 21
41.868
  0
LINE
  8
0
 10
79.156
 20
41.868
 11
80.143
 21
41.868
  0
LINE
  8
0
 10
80.143
 20
41.868
 11
80.143
 21
41.283
  0
LINE
  8
0
 10
80.143
 20
41.283
 11
80.1437
 21
41.1483
  0
LINE
  8
0
 10
80.1437
 20
41.1483
 11
80.146
 21
41.012
  0
LINE
  8
0
 10
80.146
 20
41.012
 11
80.1497
 21
40.8743
  0
LINE
  8
0
 10
80.1497
 20
40.8743
 11
80.155
 21
40.735
  0
LINE
  8
0
 10
80.155
 20
40.735
 11
80.1682
 21
40.5969
  0
LINE
  8
0
 10
80.1682
 20
40.5969
 11
80.195
 21
40.4635
  0
LINE
  8
0
 10
80.195
 20
40.4635
 11
80.2352
 21
40.3349
  0
LINE
  8
0
 10
80.2352
 20
40.3349
 11
80.289
 21
40.211
  0
LINE
  8
0
 10
80.289
 20
40.211
 11
80.3606
 21
40.0948
  0
LINE
  8
0
 10
80.3606
 20
40.0948
 11
80.4535
 21
39.99
  0
LINE
  8
0
 10
80.4535
 20
39.99
 11
80.5676
 21
39.8968
  0
LINE
  8
0
 10
80.5676
 20
39.8968
 11
80.703
 21
39.815
  0
LINE
  8
0
 10
80.703
 20
39.815
 11
80.8655
 21
39.7481
  0
LINE
  8
0
 10
80.8655
 20
39.7481
 11
81.06
 21
39.7003
  0
LINE
  8
0
 10
81.06
 20
39.7003
 11
81.2865
 21
39.6716
  0
LINE
  8
0
 10
81.2865
 20
39.6716
 11
81.545
 21
39.662
  0
LINE
  8
0
 10
81.545
 20
39.662
 11
81.6556
 21
39.6658
  0
LINE
  8
0
 10
81.6556
 20
39.6658
 11
81.7685
 21
39.6773
  0
LINE
  8
0
 10
81.7685
 20
39.6773
 11
81.8836
 21
39.6963
  0
LINE
  8
0
 10
81.8836
 20
39.6963
 11
82.001
 21
39.723
  0
LINE
  8
0
 10
82.001
 20
39.723
 11
82.1173
 21
39.7611
  0
LINE
  8
0
 10
82.1173
 20
39.7611
 11
82.2282
 21
39.8145
  0
LINE
  8
0
 10
82.2282
 20
39.8145
 11
82.3338
 21
39.8831
  0
LINE
  8
0
 10
82.3338
 20
39.8831
 11
82.434
 21
39.967
  0
LINE
  8
0
 10
82.434
 20
39.967
 11
82.5269
 21
40.068
  0
LINE
  8
0
 10
82.5269
 20
40.068
 11
82.6107
 21
40.189
  0
LINE
  8
0
 10
82.6107
 20
40.189
 11
82.6854
 21
40.33
  0
LINE
  8
0
 10
82.6854
 20
40.33
 11
82.751
 21
40.491
  0
LINE
  8
0
 10
82.751
 20
40.491
 11
82.8044
 21
40.6752
  0
LINE
  8
0
 10
82.8044
 20
40.6752
 11
82.8425
 21
40.8868
  0
LINE
  8
0
 10
82.8425
 20
40.8868
 11
82.8654
 21
41.1257
  0
LINE
  8
0
 10
82.8654
 20
41.1257
 11
82.873
 21
41.392
  0
LINE
  8
0
 10
82.873
 20
41.392
 11
82.873
 21
41.868
  0
LINE
  8
0
 10
82.873
 20
41.868
 11
83.982
 21
41.868
  0
LINE
  8
0
 10
83.982
 20
41.868
 11
83.982
 21
41.246
  0
LINE
  8
0
 10
83.982
 20
41.246
 11
83.9736
 21
40.9618
  0
LINE
  8
0
 10
83.9736
 20
40.9618
 11
83.9485
 21
40.6823
  0
LINE
  8
0
 10
83.9485
 20
40.6823
 11
83.9066
 21
40.4073
  0
LINE
  8
0
 10
83.9066
 20
40.4073
 11
83.848
 21
40.137
  0
LINE
  8
0
 10
83.848
 20
40.137
 11
83.7711
 21
39.8766
  0
LINE
  8
0
 10
83.7711
 20
39.8766
 11
83.6742
 21
39.6315
  0
LINE
  8
0
 10
83.6742
 20
39.6315
 11
83.5576
 21
39.4016
  0
LINE
  8
0
 10
83.5576
 20
39.4016
 11
83.421
 21
39.187
  0
LINE
  8
0
 10
83.421
 20
39.187
 11
83.2639
 21
38.9903
  0
LINE
  8
0
 10
83.2639
 20
38.9903
 11
83.0847
 21
38.815
  0
LINE
  8
0
 10
83.0847
 20
38.815
 11
82.8834
 21
38.6613
  0
LINE
  8
0
 10
82.8834
 20
38.6613
 11
82.66
 21
38.529
  0
LINE
  8
0
 10
82.66
 20
38.529
 11
82.4144
 21
38.4223
  0
LINE
  8
0
 10
82.4144
 20
38.4223
 11
82.1467
 21
38.346
  0
LINE
  8
0
 10
82.1467
 20
38.346
 11
81.8569
 21
38.3003
  0
LINE
  8
0
 10
81.8569
 20
38.3003
 11
81.545
 21
38.285
  0
LINE
  8
0
 10
81.545
 20
38.285
 11
81.3602
 21
38.2926
  0
LINE
  8
0
 10
81.3602
 20
38.2926
 11
81.1837
 21
38.3155
  0
LINE
  8
0
 10
81.1837
 20
38.3155
 11
81.0157
 21
38.3536
  0
LINE
  8
0
 10
81.0157
 20
38.3536
 11
80.856
 21
38.407
  0
LINE
  8
0
 10
80.856
 20
38.407
 11
80.7054
 21
38.4714
  0
LINE
  8
0
 10
80.7054
 20
38.4714
 11
80.5647
 21
38.5435
  0
LINE
  8
0
 10
80.5647
 20
38.5435
 11
80.4339
 21
38.6234
  0
LINE
  8
0
 10
80.4339
 20
38.6234
 11
80.313
 21
38.711
  0
LINE
  8
0
 10
80.313
 20
38.711
 11
80.2024
 21
38.8059
  0
LINE
  8
0
 10
80.2024
 20
38.8059
 11
80.1017
 21
38.9078
  0
LINE
  8
0
 10
80.1017
 20
38.9078
 11
80.0109
 21
39.0164
  0
LINE
  8
0
 10
80.0109
 20
39.0164
 11
79.93
 21
39.132
  0
LINE
  8
0
 10
79.93
 20
39.132
 11
79.8604
 21
39.2495
  0
LINE
  8
0
 10
79.8604
 20
39.2495
 11
79.8037
 21
39.3648
  0
LINE
  8
0
 10
79.8037
 20
39.3648
 11
79.7599
 21
39.478
  0
LINE
  8
0
 10
79.7599
 20
39.478
 11
79.729
 21
39.589
  0
LINE
  8
0
 10
79.729
 20
39.589
 11
79.7037
 21
39.4463
  0
LINE
  8
0
 10
79.7037
 20
39.4463
 11
79.6647
 21
39.2993
  0
LINE
  8
0
 10
79.6647
 20
39.2993
 11
79.6122
 21
39.1478
  0
LINE
  8
0
 10
79.6122
 20
39.1478
 11
79.546
 21
38.992
  0
LINE
  8
0
 10
79.546
 20
38.992
 11
79.4653
 21
38.8362
  0
LINE
  8
0
 10
79.4653
 20
38.8362
 11
79.3692
 21
38.6858
  0
LINE
  8
0
 10
79.3692
 20
38.6858
 11
79.2578
 21
38.5407
  0
LINE
  8
0
 10
79.2578
 20
38.5407
 11
79.131
 21
38.401
  0
LINE
  8
0
 10
79.131
 20
38.401
 11
78.9897
 21
38.2693
  0
LINE
  8
0
 10
78.9897
 20
38.2693
 11
78.834
 21
38.1493
  0
LINE
  8
0
 10
78.834
 20
38.1493
 11
78.6637
 21
38.0408
  0
LINE
  8
0
 10
78.6637
 20
38.0408
 11
78.479
 21
37.944
  0
LINE
  8
0
 10
78.479
 20
37.944
 11
78.2802
 21
37.864
  0
LINE
  8
0
 10
78.2802
 20
37.864
 11
78.0667
 21
37.8068
  0
LINE
  8
0
 10
78.0667
 20
37.8068
 11
77.8387
 21
37.7724
  0
LINE
  8
0
 10
77.8387
 20
37.7724
 11
77.596
 21
37.761
  0
LINE
  8
0
 10
77.596
 20
37.761
 11
77.3021
 21
37.7724
  0
LINE
  8
0
 10
63.3
 20
35.579
 11
63.3
 21
37.066
  0
LINE
  8
0
 10
63.3
 20
37.066
 11
69.479
 21
37.066
  0
LINE
  8
0
 10
69.479
 20
37.066
 11
64.482
 21
39.077
  0
LINE
  8
0
 10
64.482
 20
39.077
 11
64.482
 21
39.479
  0
LINE
  8
0
 10
64.482
 20
39.479
 11
66.713
 21
39.479
  0
LINE
  8
0
 10
66.713
 20
39.479
 11
72.282
 21
37.066
  0
LINE
  8
0
 10
72.282
 20
37.066
 11
72.282
 21
35.579
  0
LINE
  8
0
 10
72.282
 20
35.579
 11
63.3
 21
35.579
  0
LINE
  8
0
 10
83.8922
 20
34.36
 11
83.731
 21
34.408
  0
LINE
  8
0
 10
83.731
 20
34.408
 11
83.5842
 21
34.488
  0
LINE
  8
0
 10
83.5842
 20
34.488
 11
83.452
 21
34.6
  0
LINE
  8
0
 10
83.452
 20
34.6
 11
83.3426
 21
34.7349
  0
LINE
  8
0
 10
83.3426
 20
34.7349
 11
83.2645
 21
34.8835
  0
LINE
  8
0
 10
83.2645
 20
34.8835
 11
83.2176
 21
35.0459
  0
LINE
  8
0
 10
83.2176
 20
35.0459
 11
83.202
 21
35.222
  0
LINE
  8
0
 10
83.202
 20
35.222
 11
83.218
 21
35.3973
  0
LINE
  8
0
 10
83.218
 20
35.3973
 11
83.266
 21
35.5582
  0
LINE
  8
0
 10
83.266
 20
35.5582
 11
83.346
 21
35.7048
  0
LINE
  8
0
 10
83.346
 20
35.7048
 11
83.458
 21
35.837
  0
LINE
  8
0
 10
83.458
 20
35.837
 11
83.5921
 21
35.9464
  0
LINE
  8
0
 10
83.5921
 20
35.9464
 11
83.7385
 21
36.0245
  0
LINE
  8
0
 10
83.7385
 20
36.0245
 11
83.8971
 21
36.0714
  0
LINE
  8
0
 10
83.8971
 20
36.0714
 11
84.068
 21
36.087
  0
LINE
  8
0
 10
84.068
 20
36.087
 11
84.2437
 21
36.071
  0
LINE
  8
0
 10
84.2437
 20
36.071
 11
84.4057
 21
36.023
  0
LINE
  8
0
 10
84.4057
 20
36.023
 11
84.5542
 21
35.943
  0
LINE
  8
0
 10
84.5542
 20
35.943
 11
84.689
 21
35.831
  0
LINE
  8
0
 10
84.689
 20
35.831
 11
84.801
 21
35.6969
  0
LINE
  8
0
 10
84.801
 20
35.6969
 11
84.881
 21
35.5507
  0
LINE
  8
0
 10
84.881
 20
35.5507
 11
84.929
 21
35.3924
  0
LINE
  8
0
 10
84.929
 20
35.3924
 11
84.945
 21
35.222
  0
LINE
  8
0
 10
84.945
 20
35.222
 11
84.929
 21
35.0459
  0
LINE
  8
0
 10
84.929
 20
35.0459
 11
84.881
 21
34.8835
  0
LINE
  8
0
 10
84.881
 20
34.8835
 11
84.801
 21
34.7349
  0
LINE
  8
0
 10
84.801
 20
34.7349
 11
84.689
 21
34.6
  0
LINE
  8
0
 10
84.689
 20
34.6
 11
84.5542
 21
34.488
  0
LINE
  8
0
 10
84.5542
 20
34.488
 11
84.4057
 21
34.408
  0
LINE
  8
0
 10
84.4057
 20
34.408
 11
84.2437
 21
34.36
  0
LINE
  8
0
 10
84.2437
 20
34.36
 11
84.068
 21
34.344
  0
LINE
  8
0
 10
84.068
 20
34.344
 11
83.8922
 21
34.36
  0
LINE
  8
0
 10
75
 20
34.478
 11
75
 21
35.965
  0
LINE
  8
0
 10
75
 20
35.965
 11
81.874
 21
35.965
  0
LINE
  8
0
 10
81.874
 20
35.965
 11
81.874
 21
34.478
  0
LINE
  8
0
 10
81.874
 20
34.478
 11
75
 21
34.478
  0
LINE
  8
0
 10
64.0282
 20
28.5603
 11
63.824
 21
28.7867
  0
LINE
  8
0
 10
63.824
 20
28.7867
 11
63.6502
 21
29.0298
  0
LINE
  8
0
 10
63.6502
 20
29.0298
 11
63.507
 21
29.2895
  0
LINE
  8
0
 10
63.507
 20
29.2895
 11
63.395
 21
29.5758
  0
LINE
  8
0
 10
63.395
 20
29.5758
 11
63.315
 21
29.8987
  0
LINE
  8
0
 10
63.315
 20
29.8987
 11
63.267
 21
30.2583
  0
LINE
  8
0
 10
63.267
 20
30.2583
 11
63.251
 21
30.6545
  0
LINE
  8
0
 10
63.251
 20
30.6545
 11
63.2681
 21
30.9842
  0
LINE
  8
0
 10
63.2681
 20
30.9842
 11
63.3195
 21
31.3032
  0
LINE
  8
0
 10
63.3195
 20
31.3032
 11
63.4051
 21
31.6117
  0
LINE
  8
0
 10
63.4051
 20
31.6117
 11
63.525
 21
31.9095
  0
LINE
  8
0
 10
63.525
 20
31.9095
 11
63.675
 21
32.1914
  0
LINE
  8
0
 10
63.675
 20
32.1914
 11
63.85
 21
32.452
  0
LINE
  8
0
 10
63.85
 20
32.452
 11
64.05
 21
32.6914
  0
LINE
  8
0
 10
64.05
 20
32.6914
 11
64.275
 21
32.9095
  0
LINE
  8
0
 10
64.275
 20
32.9095
 11
64.5224
 21
33.1059
  0
LINE
  8
0
 10
64.5224
 20
33.1059
 11
64.7897
 21
33.281
  0
LINE
  8
0
 10
64.7897
 20
33.281
 11
65.0769
 21
33.4349
  0
LINE
  8
0
 10
65.0769
 20
33.4349
 11
65.384
 21
33.5675
  0
LINE
  8
0
 10
65.384
 20
33.5675
 11
65.7071
 21
33.6738
  0
LINE
  8
0
 10
65.7071
 20
33.6738
 11
66.0423
 21
33.7497
  0
LINE
  8
0
 10
66.0423
 20
33.7497
 11
66.3896
 21
33.7953
  0
LINE
  8
0
 10
66.3896
 20
33.7953
 11
66.749
 21
33.8105
  0
LINE
  8
0
 10
66.749
 20
33.8105
 11
67.0919
 21
33.7964
  0
LINE
  8
0
 10
67.0919
 20
33.7964
 11
67.4255
 21
33.7542
  0
LINE
  8
0
 10
67.4255
 20
33.7542
 11
67.7499
 21
33.6839
  0
LINE
  8
0
 10
67.7499
 20
33.6839
 11
68.065
 21
33.5855
  0
LINE
  8
0
 10
68.065
 20
33.5855
 11
68.3664
 21
33.4627
  0
LINE
  8
0
 10
68.3664
 20
33.4627
 11
68.6487
 21
33.3192
  0
LINE
  8
0
 10
68.6487
 20
33.3192
 11
68.9119
 21
33.1552
  0
LINE
  8
0
 10
68.9119
 20
33.1552
 11
69.156
 21
32.9705
  0
LINE
  8
0
 10
69.156
 20
32.9705
 11
69.3794
 21
32.7675
  0
LINE
  8
0
 10
69.3794
 20
32.7675
 11
69.5807
 21
32.5485
  0
LINE
  8
0
 10
69.5807
 20
32.5485
 11
69.7599
 21
32.3135
  0
LINE
  8
0
 10
69.7599
 20
32.3135
 11
69.917
 21
32.0625
  0
LINE
  8
0
 10
69.917
 20
32.0625
 11
70.0475
 21
31.7985
  0
LINE
  8
0
 10
70.0475
 20
31.7985
 11
70.146
 21
31.5245
  0
LINE
  8
0
 10
70.146
 20
31.5245
 11
70.2125
 21
31.2405
  0
LINE
  8
0
 10
70.2125
 20
31.2405
 11
70.247
 21
30.9465
  0
LINE
  8
0
 10
70.247
 20
30.9465
 11
69.077
 21
30.9465
  0
LINE
  8
0
 10
69.077
 20
30.9465
 11
69.0222
 21
31.1621
  0
LINE
  8
0
 10
69.0222
 20
31.1621
 11
68.943
 21
31.358
  0
LINE
  8
0
 10
68.943
 20
31.358
 11
68.8392
 21
31.5341
  0
LINE
  8
0
 10
68.8392
 20
31.5341
 11
68.711
 21
31.6905
  0
LINE
  8
0
 10
68.711
 20
31.6905
 11
68.566
 21
31.8286
  0
LINE
  8
0
 10
68.566
 20
31.8286
 11
68.411
 21
31.9507
  0
LINE
  8
0
 10
68.411
 20
31.9507
 11
68.246
 21
32.0571
  0
LINE
  8
0
 10
68.246
 20
32.0571
 11
68.071
 21
32.1475
  0
LINE
  8
0
 10
68.071
 20
32.1475
 11
67.8903
 21
32.2234
  0
LINE
  8
0
 10
67.8903
 20
32.2234
 11
67.7072
 21
32.2872
  0
LINE
  8
0
 10
67.7072
 20
32.2872
 11
67.5218
 21
32.3389
  0
LINE
  8
0
 10
67.5218
 20
32.3389
 11
67.334
 21
32.3785
  0
LINE
  8
0
 10
67.334
 20
32.3785
 11
67.1519
 21
32.4078
  0
LINE
  8
0
 10
67.1519
 20
32.4078
 11
66.9835
 21
32.4287
  0
LINE
  8
0
 10
66.9835
 20
32.4287
 11
66.8289
 21
32.4413
  0
LINE
  8
0
 10
66.8289
 20
32.4413
 11
66.688
 21
32.4455
  0
LINE
  8
0
 10
66.688
 20
32.4455
 11
66.4546
 21
32.4383
  0
LINE
  8
0
 10
66.4546
 20
32.4383
 11
66.2295
 21
32.4167
  0
LINE
  8
0
 10
66.2295
 20
32.4167
 11
66.0126
 21
32.3808
  0
LINE
  8
0
 10
66.0126
 20
32.3808
 11
65.804
 21
32.3305
  0
LINE
  8
0
 10
65.804
 20
32.3305
 11
65.6068
 21
32.2645
  0
LINE
  8
0
 10
65.6068
 20
32.2645
 11
65.4232
 21
32.1825
  0
LINE
  8
0
 10
65.4232
 20
32.1825
 11
65.2533
 21
32.0845
  0
LINE
  8
0
 10
65.2533
 20
32.0845
 11
65.097
 21
31.9705
  0
LINE
  8
0
 10
65.097
 20
31.9705
 11
64.9556
 21
31.8413
  0
LINE
  8
0
 10
64.9556
 20
31.8413
 11
64.8292
 21
31.6977
  0
LINE
  8
0
 10
64.8292
 20
31.6977
 11
64.7181
 21
31.5398
  0
LINE
  8
0
 10
64.7181
 20
31.5398
 11
64.622
 21
31.3675
  0
LINE
  8
0
 10
64.622
 20
31.3675
 11
64.545
 21
31.178
  0
LINE
  8
0
 10
64.545
 20
31.178
 11
64.49
 21
30.9695
  0
LINE
  8
0
 10
64.49
 20
30.9695
 11
64.457
 21
30.742
  0
LINE
  8
0
 10
64.457
 20
30.742
 11
64.446
 21
30.4955
  0
LINE
  8
0
 10
64.446
 20
30.4955
 11
64.4479
 21
30.4243
  0
LINE
  8
0
 10
64.4479
 20
30.4243
 11
64.4535
 21
30.3447
  0
LINE
  8
0
 10
64.4535
 20
30.3447
 11
64.4629
 21
30.2568
  0
LINE
  8
0
 10
64.4629
 20
30.2568
 11
64.476
 21
30.1605
  0
LINE
  8
0
 10
64.476
 20
30.1605
 11
64.4945
 21
30.0585
  0
LINE
  8
0
 10
64.4945
 20
30.0585
 11
64.519
 21
29.9535
  0
LINE
  8
0
 10
64.519
 20
29.9535
 11
64.5495
 21
29.8455
  0
LINE
  8
0
 10
64.5495
 20
29.8455
 11
64.586
 21
29.7345
  0
LINE
  8
0
 10
64.586
 20
29.7345
 11
64.6282
 21
29.6216
  0
LINE
  8
0
 10
64.6282
 20
29.6216
 11
64.6758
 21
29.5087
  0
LINE
  8
0
 10
64.6758
 20
29.5087
 11
64.7287
 21
29.396
  0
LINE
  8
0
 10
64.7287
 20
29.396
 11
64.787
 21
29.2835
  0
LINE
  8
0
 10
64.787
 20
29.2835
 11
64.851
 21
29.174
  0
LINE
  8
0
 10
64.851
 20
29.174
 11
64.921
 21
29.0715
  0
LINE
  8
0
 10
64.921
 20
29.0715
 11
64.997
 21
28.976
  0
LINE
  8
0
 10
64.997
 20
28.976
 11
65.079
 21
28.8875
  0
LINE
  8
0
 10
65.079
 20
28.8875
 11
64.263
 21
28.3505
  0
LINE
  8
0
 10
64.263
 20
28.3505
 11
64.0282
 21
28.5603
  0
LINE
  8
0
 10
75
 20
31.0092
 11
75
 21
32.4842
  0
LINE
  8
0
 10
75
 20
32.4842
 11
81.874
 21
32.4842
  0
LINE
  8
0
 10
81.874
 20
32.4842
 11
81.874
 21
31.1682
  0
LINE
  8
0
 10
81.874
 20
31.1682
 11
81.179
 21
31.0092
  0
LINE
  8
0
 10
81.179
 20
31.0092
 11
75
 21
31.0092
  0
LINE
  8
0
 10
66.6759
 20
27.5728
 11
66.5297
 21
27.5797
  0
LINE
  8
0
 10
66.5297
 20
27.5797
 11
66.3834
 21
27.5913
  0
LINE
  8
0
 10
66.3834
 20
27.5913
 11
66.237
 21
27.6075
  0
LINE
  8
0
 10
66.237
 20
27.6075
 11
66.237
 21
31.7875
  0
LINE
  8
0
 10
66.237
 20
31.7875
 11
67.31
 21
31.7875
  0
LINE
  8
0
 10
67.31
 20
31.7875
 11
67.31
 21
28.9725
  0
LINE
  8
0
 10
67.31
 20
28.9725
 11
67.4669
 21
28.979
  0
LINE
  8
0
 10
67.4669
 20
28.979
 11
67.6207
 21
28.9985
  0
LINE
  8
0
 10
67.6207
 20
28.9985
 11
67.7714
 21
29.031
  0
LINE
  8
0
 10
67.7714
 20
29.031
 11
67.919
 21
29.0765
  0
LINE
  8
0
 10
67.919
 20
29.0765
 11
68.0627
 21
29.1341
  0
LINE
  8
0
 10
68.0627
 20
29.1341
 11
68.201
 21
29.204
  0
LINE
  8
0
 10
68.201
 20
29.204
 11
68.3337
 21
29.2861
  0
LINE
  8
0
 10
68.3337
 20
29.2861
 11
68.461
 21
29.3805
  0
LINE
  8
0
 10
68.461
 20
29.3805
 11
68.5811
 21
29.4852
  0
LINE
  8
0
 10
68.5811
 20
29.4852
 11
68.6912
 21
29.5985
  0
LINE
  8
0
 10
68.6912
 20
29.5985
 11
68.7916
 21
29.7202
  0
LINE
  8
0
 10
68.7916
 20
29.7202
 11
68.882
 21
29.8505
  0
LINE
  8
0
 10
68.882
 20
29.8505
 11
68.9591
 21
29.9883
  0
LINE
  8
0
 10
68.9591
 20
29.9883
 11
69.0192
 21
30.1337
  0
LINE
  8
0
 10
69.0192
 20
30.1337
 11
69.0626
 21
30.2868
  0
LINE
  8
0
 10
69.0626
 20
30.2868
 11
69.089
 21
30.4475
  0
LINE
  8
0
 10
69.089
 20
30.4475
 11
70.235
 21
30.4475
  0
LINE
  8
0
 10
70.235
 20
30.4475
 11
70.19
 21
30.1265
  0
LINE
  8
0
 10
70.19
 20
30.1265
 11
70.116
 21
29.8215
  0
LINE
  8
0
 10
70.116
 20
29.8215
 11
70.013
 21
29.5325
  0
LINE
  8
0
 10
70.013
 20
29.5325
 11
69.881
 21
29.2595
  0
LINE
  8
0
 10
69.881
 20
29.2595
 11
69.7243
 21
29.0036
  0
LINE
  8
0
 10
69.7243
 20
29.0036
 11
69.5462
 21
28.767
  0
LINE
  8
0
 10
69.5462
 20
28.767
 11
69.3468
 21
28.5496
  0
LINE
  8
0
 10
69.3468
 20
28.5496
 11
69.126
 21
28.3515
  0
LINE
  8
0
 10
69.126
 20
28.3515
 11
68.8861
 21
28.1736
  0
LINE
  8
0
 10
68.8861
 20
28.1736
 11
68.6292
 21
28.0177
  0
LINE
  8
0
 10
68.6292
 20
28.0177
 11
68.3556
 21
27.884
  0
LINE
  8
0
 10
68.3556
 20
27.884
 11
68.065
 21
27.7725
  0
LINE
  8
0
 10
68.065
 20
27.7725
 11
67.7634
 21
27.6841
  0
LINE
  8
0
 10
67.7634
 20
27.6841
 11
67.4557
 21
27.621
  0
LINE
  8
0
 10
67.4557
 20
27.621
 11
67.1419
 21
27.5831
  0
LINE
  8
0
 10
67.1419
 20
27.5831
 11
66.822
 21
27.5705
  0
LINE
  8
0
 10
66.822
 20
27.5705
 11
66.6759
 21
27.5728
  0
LINE
  8
0
 10
75
 20
26.7922
 11
75
 21
28.2792
  0
LINE
  8
0
 10
75
 20
28.2792
 11
78.742
 21
28.2792
  0
LINE
  8
0
 10
78.742
 20
28.2792
 11
78.9467
 21
28.2815
  0
LINE
  8
0
 10
78.9467
 20
28.2815
 11
79.147
 21
28.2885
  0
LINE
  8
0
 10
79.147
 20
28.2885
 11
79.3427
 21
28.3
  0
LINE
  8
0
 10
79.3427
 20
28.3
 11
79.534
 21
28.3162
  0
LINE
  8
0
 10
79.534
 20
28.3162
 11
79.7176
 21
28.3404
  0
LINE
  8
0
 10
79.7176
 20
28.3404
 11
79.8905
 21
28.3767
  0
LINE
  8
0
 10
79.8905
 20
28.3767
 11
80.0526
 21
28.4254
  0
LINE
  8
0
 10
80.0526
 20
28.4254
 11
80.204
 21
28.4862
  0
LINE
  8
0
 10
80.204
 20
28.4862
 11
80.3424
 21
28.5594
  0
LINE
  8
0
 10
80.3424
 20
28.5594
 11
80.4647
 21
28.6447
  0
LINE
  8
0
 10
80.4647
 20
28.6447
 11
80.5709
 21
28.7424
  0
LINE
  8
0
 10
80.5709
 20
28.7424
 11
80.661
 21
28.8522
  0
LINE
  8
0
 10
80.661
 20
28.8522
 11
80.7332
 21
28.9796
  0
LINE
  8
0
 10
80.7332
 20
28.9796
 11
80.7847
 21
29.1297
  0
LINE
  8
0
 10
80.7847
 20
29.1297
 11
80.8157
 21
29.3026
  0
LINE
  8
0
 10
80.8157
 20
29.3026
 11
80.826
 21
29.4982
  0
LINE
  8
0
 10
80.826
 20
29.4982
 11
80.8226
 21
29.5909
  0
LINE
  8
0
 10
80.8226
 20
29.5909
 11
80.8122
 21
29.698
  0
LINE
  8
0
 10
80.8122
 20
29.698
 11
80.7951
 21
29.8194
  0
LINE
  8
0
 10
80.7951
 20
29.8194
 11
80.771
 21
29.9552
  0
LINE
  8
0
 10
80.771
 20
29.9552
 11
80.7393
 21
30.0971
  0
LINE
  8
0
 10
80.7393
 20
30.0971
 11
80.6992
 21
30.2367
  0
LINE
  8
0
 10
80.6992
 20
30.2367
 11
80.6508
 21
30.3741
  0
LINE
  8
0
 10
80.6508
 20
30.3741
 11
80.594
 21
30.5092
  0
LINE
  8
0
 10
80.594
 20
30.5092
 11
81.533
 21
30.5092
  0
LINE
  8
0
 10
81.533
 20
30.5092
 11
81.615
 21
30.3414
  0
LINE
  8
0
 10
81.615
 20
30.3414
 11
81.691
 21
30.1667
  0
LINE
  8
0
 10
81.691
 20
30.1667
 11
81.761
 21
29.9854
  0
LINE
  8
0
 10
81.761
 20
29.9854
 11
81.825
 21
29.7972
  0
LINE
  8
0
 10
81.825
 20
29.7972
 11
81.8784
 21
29.6064
  0
LINE
  8
0
 10
81.8784
 20
29.6064
 11
81.9165
 21
29.4177
  0
LINE
  8
0
 10
81.9165
 20
29.4177
 11
81.9394
 21
29.2314
  0
LINE
  8
0
 10
81.9394
 20
29.2314
 11
81.947
 21
29.0472
  0
LINE
  8
0
 10
81.947
 20
29.0472
 11
81.9329
 21
28.7839
  0
LINE
  8
0
 10
81.9329
 20
28.7839
 11
81.8905
 21
28.5417
  0
LINE
  8
0
 10
81.8905
 20
28.5417
 11
81.8199
 21
28.3209
  0
LINE
  8
0
 10
81.8199
 20
28.3209
 11
81.721
 21
28.1212
  0
LINE
  8
0
 10
81.721
 20
28.1212
 11
81.5989
 21
27.9322
  0
LINE
  8
0
 10
81.5989
 20
27.9322
 11
81.4577
 21
27.7432
  0
LINE
  8
0
 10
81.4577
 20
27.7432
 11
81.2974
 21
27.5542
  0
LINE
  8
0
 10
81.2974
 20
27.5542
 11
81.118
 21
27.3652
  0
LINE
  8
0
 10
81.118
 20
27.3652
 11
81.0103
 21
27.2674
  0
LINE
  8
0
 10
81.0103
 20
27.2674
 11
80.8942
 21
27.181
  0
LINE
  8
0
 10
80.8942
 20
27.181
 11
80.7698
 21
27.1059
  0
LINE
  8
0
 10
80.7698
 20
27.1059
 11
80.637
 21
27.0422
  0
LINE
  8
0
 10
80.637
 20
27.0422
 11
80.4984
 21
26.9881
  0
LINE
  8
0
 10
80.4984
 20
26.9881
 11
80.3567
 21
26.9417
  0
LINE
  8
0
 10
80.3567
 20
26.9417
 11
80.2119
 21
26.9031
  0
LINE
  8
0
 10
80.2119
 20
26.9031
 11
80.064
 21
26.8722
  0
LINE
  8
0
 10
80.064
 20
26.8722
 11
79.9141
 21
26.8474
  0
LINE
  8
0
 10
79.9141
 20
26.8474
 11
79.7635
 21
26.828
  0
LINE
  8
0
 10
79.7635
 20
26.828
 11
79.6121
 21
26.8139
  0
LINE
  8
0
 10
79.6121
 20
26.8139
 11
79.46
 21
26.8052
  0
LINE
  8
0
 10
79.46
 20
26.8052
 11
79.3087
 21
26.7995
  0
LINE
  8
0
 10
79.3087
 20
26.7995
 11
79.1587
 21
26.7955
  0
LINE
  8
0
 10
79.1587
 20
26.7955
 11
79.0102
 21
26.793
  0
LINE
  8
0
 10
79.0102
 20
26.793
 11
78.863
 21
26.7922
  0
LINE
  8
0
 10
78.863
 20
26.7922
 11
75
 21
26.7922
  0
LINE
  8
0
 10
63.605
 20
21.9834
 11
63.5289
 21
22.1356
  0
LINE
  8
0
 10
63.5289
 20
22.1356
 11
63.4597
 21
22.2992
  0
LINE
  8
0
 10
63.4597
 20
22.2992
 11
63.3974
 21
22.4741
  0
LINE
  8
0
 10
63.3974
 20
22.4741
 11
63.342
 21
22.6604
  0
LINE
  8
0
 10
63.342
 20
22.6604
 11
63.297
 21
22.8551
  0
LINE
  8
0
 10
63.297
 20
22.8551
 11
63.2648
 21
23.0549
  0
LINE
  8
0
 10
63.2648
 20
23.0549
 11
63.2455
 21
23.2601
  0
LINE
  8
0
 10
63.2455
 20
23.2601
 11
63.239
 21
23.4704
  0
LINE
  8
0
 10
63.239
 20
23.4704
 11
63.2501
 21
23.7133
  0
LINE
  8
0
 10
63.2501
 20
23.7133
 11
63.2833
 21
23.9537
  0
LINE
  8
0
 10
63.2833
 20
23.9537
 11
63.3386
 21
24.1918
  0
LINE
  8
0
 10
63.3386
 20
24.1918
 11
63.416
 21
24.4274
  0
LINE
  8
0
 10
63.416
 20
24.4274
 11
63.5186
 21
24.6555
  0
LINE
  8
0
 10
63.5186
 20
24.6555
 11
63.6492
 21
24.8707
  0
LINE
  8
0
 10
63.6492
 20
24.8707
 11
63.8081
 21
25.073
  0
LINE
  8
0
 10
63.8081
 20
25.073
 11
63.995
 21
25.2625
  0
LINE
  8
0
 10
63.995
 20
25.2625
 11
64.2726
 21
25.4788
  0
LINE
  8
0
 10
64.2726
 20
25.4788
 11
64.5815
 21
25.6647
  0
LINE
  8
0
 10
64.5815
 20
25.6647
 11
64.9216
 21
25.8203
  0
LINE
  8
0
 10
64.9216
 20
25.8203
 11
65.293
 21
25.9454
  0
LINE
  8
0
 10
65.293
 20
25.9454
 11
65.6796
 21
26.0413
  0
LINE
  8
0
 10
65.6796
 20
26.0413
 11
66.0652
 21
26.1097
  0
LINE
  8
0
 10
66.0652
 20
26.1097
 11
66.4501
 21
26.1508
  0
LINE
  8
0
 10
66.4501
 20
26.1508
 11
66.834
 21
26.1644
  0
LINE
  8
0
 10
66.834
 20
26.1644
 11
67.2904
 21
26.1481
  0
LINE
  8
0
 10
67.2904
 20
26.1481
 11
67.7087
 21
26.0989
  0
LINE
  8
0
 10
67.7087
 20
26.0989
 11
68.0889
 21
26.0171
  0
LINE
  8
0
 10
68.0889
 20
26.0171
 11
68.431
 21
25.9025
  0
LINE
  8
0
 10
68.431
 20
25.9025
 11
68.7387
 21
25.7619
  0
LINE
  8
0
 10
68.7387
 20
25.7619
 11
69.016
 21
25.6024
  0
LINE
  8
0
 10
69.016
 20
25.6024
 11
69.2627
 21
25.424
  0
LINE
  8
0
 10
69.2627
 20
25.424
 11
69.479
 21
25.2264
  0
LINE
  8
0
 10
69.479
 20
25.2264
 11
69.6659
 21
25.0133
  0
LINE
  8
0
 10
69.6659
 20
25.0133
 11
69.8248
 21
24.7887
  0
LINE
  8
0
 10
69.8248
 20
24.7887
 11
69.9554
 21
24.5528
  0
LINE
  8
0
 10
69.9554
 20
24.5528
 11
70.058
 21
24.3055
  0
LINE
  8
0
 10
70.058
 20
24.3055
 11
70.1354
 21
24.0536
  0
LINE
  8
0
 10
70.1354
 20
24.0536
 11
70.1908
 21
23.8042
  0
LINE
  8
0
 10
70.1908
 20
23.8042
 11
70.2239
 21
23.5571
  0
LINE
  8
0
 10
70.2239
 20
23.5571
 11
70.235
 21
23.3124
  0
LINE
  8
0
 10
70.235
 20
23.3124
 11
70.2296
 21
23.1258
  0
LINE
  8
0
 10
70.2296
 20
23.1258
 11
70.2135
 21
22.9437
  0
LINE
  8
0
 10
70.2135
 20
22.9437
 11
70.1866
 21
22.7663
  0
LINE
  8
0
 10
70.1866
 20
22.7663
 11
70.149
 21
22.5934
  0
LINE
  8
0
 10
70.149
 20
22.5934
 11
70.1019
 21
22.4271
  0
LINE
  8
0
 10
70.1019
 20
22.4271
 11
70.0457
 21
22.2699
  0
LINE
  8
0
 10
70.0457
 20
22.2699
 11
69.9804
 21
22.1221
  0
LINE
  8
0
 10
69.9804
 20
22.1221
 11
69.906
 21
21.9834
  0
LINE
  8
0
 10
69.906
 20
21.9834
 11
68.614
 21
21.9834
  0
LINE
  8
0
 10
68.614
 20
21.9834
 11
68.7182
 21
22.09
  0
LINE
  8
0
 10
68.7182
 20
22.09
 11
68.8118
 21
22.2027
  0
LINE
  8
0
 10
68.8118
 20
22.2027
 11
68.8947
 21
22.3215
  0
LINE
  8
0
 10
68.8947
 20
22.3215
 11
68.967
 21
22.4464
  0
LINE
  8
0
 10
68.967
 20
22.4464
 11
69.0256
 21
22.5783
  0
LINE
  8
0
 10
69.0256
 20
22.5783
 11
69.0675
 21
22.7177
  0
LINE
  8
0
 10
69.0675
 20
22.7177
 11
69.0926
 21
22.8648
  0
LINE
  8
0
 10
69.0926
 20
22.8648
 11
69.101
 21
23.0194
  0
LINE
  8
0
 10
69.101
 20
23.0194
 11
69.0892
 21
23.2031
  0
LINE
  8
0
 10
69.0892
 20
23.2031
 11
69.0537
 21
23.3762
  0
LINE
  8
0
 10
69.0537
 20
23.3762
 11
68.9947
 21
23.5386
  0
LINE
  8
0
 10
68.9947
 20
23.5386
 11
68.912
 21
23.6904
  0
LINE
  8
0
 10
68.912
 20
23.6904
 11
68.8087
 21
23.8308
  0
LINE
  8
0
 10
68.8087
 20
23.8308
 11
68.688
 21
23.9597
  0
LINE
  8
0
 10
68.688
 20
23.9597
 11
68.5497
 21
24.0773
  0
LINE
  8
0
 10
68.5497
 20
24.0773
 11
68.394
 21
24.1834
  0
LINE
  8
0
 10
68.394
 20
24.1834
 11
68.2234
 21
24.2783
  0
LINE
  8
0
 10
68.2234
 20
24.2783
 11
68.0405
 21
24.3617
  0
LINE
  8
0
 10
68.0405
 20
24.3617
 11
67.8454
 21
24.4338
  0
LINE
  8
0
 10
67.8454
 20
24.4338
 11
67.638
 21
24.4944
  0
LINE
  8
0
 10
67.638
 20
24.4944
 11
67.4212
 21
24.5426
  0
LINE
  8
0
 10
67.4212
 20
24.5426
 11
67.1967
 21
24.577
  0
LINE
  8
0
 10
67.1967
 20
24.577
 11
66.9647
 21
24.5976
  0
LINE
  8
0
 10
66.9647
 20
24.5976
 11
66.725
 21
24.6044
  0
LINE
  8
0
 10
66.725
 20
24.6044
 11
66.4852
 21
24.5968
  0
LINE
  8
0
 10
66.4852
 20
24.5968
 11
66.2537
 21
24.5739
  0
LINE
  8
0
 10
66.2537
 20
24.5739
 11
66.0307
 21
24.5358
  0
LINE
  8
0
 10
66.0307
 20
24.5358
 11
65.816
 21
24.4825
  0
LINE
  8
0
 10
65.816
 20
24.4825
 11
65.6124
 21
24.4161
  0
LINE
  8
0
 10
65.6124
 20
24.4161
 11
65.4218
 21
24.3392
  0
LINE
  8
0
 10
65.4218
 20
24.3392
 11
65.2439
 21
24.2516
  0
LINE
  8
0
 10
65.2439
 20
24.2516
 11
65.079
 21
24.1534
  0
LINE
  8
0
 10
65.079
 20
24.1534
 11
64.9293
 21
24.0438
  0
LINE
  8
0
 10
64.9293
 20
24.0438
 11
64.7962
 21
23.9229
  0
LINE
  8
0
 10
64.7962
 20
23.9229
 11
64.6798
 21
23.7908
  0
LINE
  8
0
 10
64.6798
 20
23.7908
 11
64.58
 21
23.6474
  0
LINE
  8
0
 10
64.58
 20
23.6474
 11
64.4999
 21
23.4946
  0
LINE
  8
0
 10
64.4999
 20
23.4946
 11
64.4427
 21
23.3349
  0
LINE
  8
0
 10
64.4427
 20
23.3349
 11
64.4084
 21
23.1686
  0
LINE
  8
0
 10
64.4084
 20
23.1686
 11
64.397
 21
22.9954
  0
LINE
  8
0
 10
64.397
 20
22.9954
 11
64.4267
 21
22.7083
  0
LINE
  8
0
 10
64.4267
 20
22.7083
 11
64.5157
 21
22.4439
  0
LINE
  8
0
 10
64.5157
 20
22.4439
 11
64.6642
 21
22.2023
  0
LINE
  8
0
 10
64.6642
 20
22.2023
 11
64.872
 21
21.9834
  0
LINE
  8
0
 10
64.872
 20
21.9834
 11
63.605
 21
21.9834
  0
LINE
  8
0
 10
78.327
 20
21.9166
 11
78.327
 21
22.1846
  0
LINE
  8
0
 10
78.327
 20
22.1846
 11
78.3239
 21
22.3077
  0
LINE
  8
0
 10
78.3239
 20
22.3077
 11
78.3147
 21
22.4341
  0
LINE
  8
0
 10
78.3147
 20
22.4341
 11
78.2994
 21
22.5637
  0
LINE
  8
0
 10
78.2994
 20
22.5637
 11
78.278
 21
22.6966
  0
LINE
  8
0
 10
78.278
 20
22.6966
 11
78.2486
 21
22.8284
  0
LINE
  8
0
 10
78.2486
 20
22.8284
 11
78.2085
 21
22.9556
  0
LINE
  8
0
 10
78.2085
 20
22.9556
 11
78.1576
 21
23.0784
  0
LINE
  8
0
 10
78.1576
 20
23.0784
 11
78.096
 21
23.1966
  0
LINE
  8
0
 10
78.096
 20
23.1966
 11
78.0217
 21
23.3072
  0
LINE
  8
0
 10
78.0217
 20
23.3072
 11
77.933
 21
23.4079
  0
LINE
  8
0
 10
77.933
 20
23.4079
 11
77.8297
 21
23.4987
  0
LINE
  8
0
 10
77.8297
 20
23.4987
 11
77.712
 21
23.5796
  0
LINE
  8
0
 10
77.712
 20
23.5796
 11
77.5782
 21
23.6461
  0
LINE
  8
0
 10
77.5782
 20
23.6461
 11
77.427
 21
23.6936
  0
LINE
  8
0
 10
77.427
 20
23.6936
 11
77.2582
 21
23.7221
  0
LINE
  8
0
 10
77.2582
 20
23.7221
 11
77.072
 21
23.7316
  0
LINE
  8
0
 10
77.072
 20
23.7316
 11
76.815
 21
23.7176
  0
LINE
  8
0
 10
76.815
 20
23.7176
 11
76.5932
 21
23.6754
  0
LINE
  8
0
 10
76.5932
 20
23.6754
 11
76.4066
 21
23.6051
  0
LINE
  8
0
 10
76.4066
 20
23.6051
 11
76.255
 21
23.5066
  0
LINE
  8
0
 10
76.255
 20
23.5066
 11
76.1347
 21
23.3815
  0
LINE
  8
0
 10
76.1347
 20
23.3815
 11
76.0417
 21
23.2311
  0
LINE
  8
0
 10
76.0417
 20
23.2311
 11
75.9762
 21
23.0555
  0
LINE
  8
0
 10
75.9762
 20
23.0555
 11
75.938
 21
22.8546
  0
LINE
  8
0
 10
75.938
 20
22.8546
 11
74.951
 21
22.8546
  0
LINE
  8
0
 10
74.951
 20
22.8546
 11
74.9458
 21
22.8829
  0
LINE
  8
0
 10
74.9458
 20
22.8829
 11
74.942
 21
22.9186
  0
LINE
  8
0
 10
74.942
 20
22.9186
 11
74.9398
 21
22.9619
  0
LINE
  8
0
 10
74.9398
 20
22.9619
 11
74.939
 21
23.0126
  0
LINE
  8
0
 10
74.939
 20
23.0126
 11
74.9458
 21
23.2182
  0
LINE
  8
0
 10
74.9458
 20
23.2182
 11
74.9663
 21
23.4199
  0
LINE
  8
0
 10
74.9663
 20
23.4199
 11
75.0003
 21
23.6177
  0
LINE
  8
0
 10
75.0003
 20
23.6177
 11
75.048
 21
23.8116
  0
LINE
  8
0
 10
75.048
 20
23.8116
 11
75.1114
 21
23.9979
  0
LINE
  8
0
 10
75.1114
 20
23.9979
 11
75.1915
 21
24.1729
  0
LINE
  8
0
 10
75.1915
 20
24.1729
 11
75.2884
 21
24.3364
  0
LINE
  8
0
 10
75.2884
 20
24.3364
 11
75.402
 21
24.4886
  0
LINE
  8
0
 10
75.402
 20
24.4886
 11
75.5339
 21
24.6267
  0
LINE
  8
0
 10
75.5339
 20
24.6267
 11
75.6855
 21
24.7489
  0
LINE
  8
0
 10
75.6855
 20
24.7489
 11
75.8569
 21
24.8552
  0
LINE
  8
0
 10
75.8569
 20
24.8552
 11
76.048
 21
24.9456
  0
LINE
  8
0
 10
76.048
 20
24.9456
 11
76.2604
 21
25.0174
  0
LINE
  8
0
 10
76.2604
 20
25.0174
 11
76.4957
 21
25.0686
  0
LINE
  8
0
 10
76.4957
 20
25.0686
 11
76.7539
 21
25.0994
  0
LINE
  8
0
 10
76.7539
 20
25.0994
 11
77.035
 21
25.1096
  0
LINE
  8
0
 10
77.035
 20
25.1096
 11
77.3059
 21
25.0947
  0
LINE
  8
0
 10
77.3059
 20
25.0947
 11
77.5577
 21
25.0501
  0
LINE
  8
0
 10
77.5577
 20
25.0501
 11
77.7904
 21
24.9757
  0
LINE
  8
0
 10
77.7904
 20
24.9757
 11
78.004
 21
24.8716
  0
LINE
  8
0
 10
78.004
 20
24.8716
 11
78.1993
 21
24.7443
  0
LINE
  8
0
 10
78.1993
 20
24.7443
 11
78.3762
 21
24.6004
  0
LINE
  8
0
 10
78.3762
 20
24.6004
 11
78.5348
 21
24.4398
  0
LINE
  8
0
 10
78.5348
 20
24.4398
 11
78.675
 21
24.2626
  0
LINE
  8
0
 10
78.675
 20
24.2626
 11
78.7976
 21
24.0702
  0
LINE
  8
0
 10
78.7976
 20
24.0702
 11
78.9035
 21
23.8649
  0
LINE
  8
0
 10
78.9035
 20
23.8649
 11
78.9926
 21
23.6467
  0
LINE
  8
0
 10
78.9926
 20
23.6467
 11
79.065
 21
23.4156
  0
LINE
  8
0
 10
79.065
 20
23.4156
 11
79.121
 21
23.1769
  0
LINE
  8
0
 10
79.121
 20
23.1769
 11
79.161
 21
22.9369
  0
LINE
  8
0
 10
79.161
 20
22.9369
 11
79.185
 21
22.6954
  0
LINE
  8
0
 10
79.185
 20
22.6954
 11
79.193
 21
22.4526
  0
LINE
  8
0
 10
79.193
 20
22.4526
 11
79.193
 21
21.9166
  0
LINE
  8
0
 10
79.193
 20
21.9166
 11
78.327
 21
21.9166
  0
LINE
  8
0
 10
74.988
 20
19.9416
 11
74.9926
 21
20.0222
  0
LINE
  8
0
 10
74.9926
 20
20.0222
 11
75.0062
 21
20.1051
  0
LINE
  8
0
 10
75.0062
 20
20.1051
 11
75.0291
 21
20.1902
  0
LINE
  8
0
 10
75.0291
 20
20.1902
 11
75.061
 21
20.2776
  0
LINE
  8
0
 10
75.061
 20
20.2776
 11
75.1013
 21
20.3649
  0
LINE
  8
0
 10
75.1013
 20
20.3649
 11
75.1492
 21
20.4509
  0
LINE
  8
0
 10
75.1492
 20
20.4509
 11
75.2048
 21
20.5354
  0
LINE
  8
0
 10
75.2048
 20
20.5354
 11
75.268
 21
20.6186
  0
LINE
  8
0
 10
75.268
 20
20.6186
 11
75.3369
 21
20.6976
  0
LINE
  8
0
 10
75.3369
 20
20.6976
 11
75.4095
 21
20.7706
  0
LINE
  8
0
 10
75.4095
 20
20.7706
 11
75.4859
 21
20.8376
  0
LINE
  8
0
 10
75.4859
 20
20.8376
 11
75.566
 21
20.8986
  0
LINE
  8
0
 10
75.566
 20
20.8986
 11
75.6504
 21
20.9532
  0
LINE
  8
0
 10
75.6504
 20
20.9532
 11
75.7385
 21
21.0009
  0
LINE
  8
0
 10
75.7385
 20
21.0009
 11
75.8304
 21
21.0417
  0
LINE
  8
0
 10
75.8304
 20
21.0417
 11
75.926
 21
21.0756
  0
LINE
  8
0
 10
75.926
 20
21.0756
 11
75.7781
 21
21.1511
  0
LINE
  8
0
 10
75.7781
 20
21.1511
 11
75.6385
 21
21.2564
  0
LINE
  8
0
 10
75.6385
 20
21.2564
 11
75.5071
 21
21.3916
  0
LINE
  8
0
 10
75.5071
 20
21.3916
 11
75.384
 21
21.5566
  0
LINE
  8
0
 10
75.384
 20
21.5566
 11
75.2731
 21
21.7415
  0
LINE
  8
0
 10
75.2731
 20
21.7415
 11
75.1782
 21
21.9361
  0
LINE
  8
0
 10
75.1782
 20
21.9361
 11
75.0995
 21
22.1405
  0
LINE
  8
0
 10
75.0995
 20
22.1405
 11
75.037
 21
22.3546
  0
LINE
  8
0
 10
75.037
 20
22.3546
 11
75.963
 21
22.3546
  0
LINE
  8
0
 10
75.963
 20
22.3546
 11
76.0007
 21
22.212
  0
LINE
  8
0
 10
76.0007
 20
22.212
 11
76.0527
 21
22.0761
  0
LINE
  8
0
 10
76.0527
 20
22.0761
 11
76.1192
 21
21.947
  0
LINE
  8
0
 10
76.1192
 20
21.947
 11
76.2
 21
21.8246
  0
LINE
  8
0
 10
76.2
 20
21.8246
 11
76.2927
 21
21.7099
  0
LINE
  8
0
 10
76.2927
 20
21.7099
 11
76.3937
 21
21.6036
  0
LINE
  8
0
 10
76.3937
 20
21.6036
 11
76.5032
 21
21.5059
  0
LINE
  8
0
 10
76.5032
 20
21.5059
 11
76.621
 21
21.4166
  0
LINE
  8
0
 10
76.621
 20
21.4166
 11
79.193
 21
21.4166
  0
LINE
  8
0
 10
79.193
 20
21.4166
 11
79.4762
 21
21.4204
  0
LINE
  8
0
 10
79.4762
 20
21.4204
 11
79.729
 21
21.4319
  0
LINE
  8
0
 10
79.729
 20
21.4319
 11
79.9512
 21
21.4509
  0
LINE
  8
0
 10
79.9512
 20
21.4509
 11
80.143
 21
21.4776
  0
LINE
  8
0
 10
80.143
 20
21.4776
 11
80.3081
 21
21.5134
  0
LINE
  8
0
 10
80.3081
 20
21.5134
 11
80.4495
 21
21.5599
  0
LINE
  8
0
 10
80.4495
 20
21.5599
 11
80.5671
 21
21.6169
  0
LINE
  8
0
 10
80.5671
 20
21.6169
 11
80.661
 21
21.6846
  0
LINE
  8
0
 10
80.661
 20
21.6846
 11
80.7358
 21
21.7619
  0
LINE
  8
0
 10
80.7358
 20
21.7619
 11
80.7952
 21
21.8476
  0
LINE
  8
0
 10
80.7952
 20
21.8476
 11
80.8393
 21
21.9419
  0
LINE
  8
0
 10
80.8393
 20
21.9419
 11
80.868
 21
22.0446
  0
LINE
  8
0
 10
80.868
 20
22.0446
 11
80.8868
 21
22.1561
  0
LINE
  8
0
 10
80.8868
 20
22.1561
 11
80.9002
 21
22.2774
  0
LINE
  8
0
 10
80.9002
 20
22.2774
 11
80.9083
 21
22.4086
  0
LINE
  8
0
 10
80.9083
 20
22.4086
 11
80.911
 21
22.5496
  0
LINE
  8
0
 10
80.911
 20
22.5496
 11
80.9068
 21
22.6817
  0
LINE
  8
0
 10
80.9068
 20
22.6817
 11
80.8942
 21
22.8101
  0
LINE
  8
0
 10
80.8942
 20
22.8101
 11
80.8733
 21
22.9347
  0
LINE
  8
0
 10
80.8733
 20
22.9347
 11
80.844
 21
23.0556
  0
LINE
  8
0
 10
80.844
 20
23.0556
 11
80.8089
 21
23.1723
  0
LINE
  8
0
 10
80.8089
 20
23.1723
 11
80.7707
 21
23.2844
  0
LINE
  8
0
 10
80.7707
 20
23.2844
 11
80.7294
 21
23.3918
  0
LINE
  8
0
 10
80.7294
 20
23.3918
 11
80.685
 21
23.4946
  0
LINE
  8
0
 10
80.685
 20
23.4946
 11
80.6383
 21
23.5921
  0
LINE
  8
0
 10
80.6383
 20
23.5921
 11
80.5892
 21
23.6836
  0
LINE
  8
0
 10
80.5892
 20
23.6836
 11
80.5378
 21
23.7691
  0
LINE
  8
0
 10
80.5378
 20
23.7691
 11
80.484
 21
23.8486
  0
LINE
  8
0
 10
80.484
 20
23.8486
 11
80.4325
 21
23.9197
  0
LINE
  8
0
 10
80.4325
 20
23.9197
 11
80.387
 21
23.9809
  0
LINE
  8
0
 10
80.387
 20
23.9809
 11
80.3475
 21
24.0322
  0
LINE
  8
0
 10
80.3475
 20
24.0322
 11
80.314
 21
24.0736
  0
LINE
  8
0
 10
80.314
 20
24.0736
 11
81.155
 21
24.6216
  0
LINE
  8
0
 10
81.155
 20
24.6216
 11
81.2224
 21
24.5531
  0
LINE
  8
0
 10
81.2224
 20
24.5531
 11
81.2905
 21
24.4694
  0
LINE
  8
0
 10
81.2905
 20
24.4694
 11
81.3594
 21
24.3706
  0
LINE
  8
0
 10
81.3594
 20
24.3706
 11
81.429
 21
24.2566
  0
LINE
  8
0
 10
81.429
 20
24.2566
 11
81.4971
 21
24.1301
  0
LINE
  8
0
 10
81.4971
 20
24.1301
 11
81.5612
 21
23.9944
  0
LINE
  8
0
 10
81.5612
 20
23.9944
 11
81.6216
 21
23.8495
  0
LINE
  8
0
 10
81.6216
 20
23.8495
 11
81.678
 21
23.6956
  0
LINE
  8
0
 10
81.678
 20
23.6956
 11
81.7303
 21
23.5337
  0
LINE
  8
0
 10
81.7303
 20
23.5337
 11
81.7772
 21
23.3651
  0
LINE
  8
0
 10
81.7772
 20
23.3651
 11
81.8188
 21
23.1897
  0
LINE
  8
0
 10
81.8188
 20
23.1897
 11
81.855
 21
23.0076
  0
LINE
  8
0
 10
81.855
 20
23.0076
 11
81.8847
 21
22.8197
  0
LINE
  8
0
 10
81.8847
 20
22.8197
 11
81.906
 21
22.6279
  0
LINE
  8
0
 10
81.906
 20
22.6279
 11
81.9187
 21
22.4322
  0
LINE
  8
0
 10
81.9187
 20
22.4322
 11
81.923
 21
22.2326
  0
LINE
  8
0
 10
81.923
 20
22.2326
 11
81.9184
 21
22.0512
  0
LINE
  8
0
 10
81.9184
 20
22.0512
 11
81.9045
 21
21.8721
  0
LINE
  8
0
 10
81.9045
 20
21.8721
 11
81.8814
 21
21.6952
  0
LINE
  8
0
 10
81.8814
 20
21.6952
 11
81.849
 21
21.5206
  0
LINE
  8
0
 10
81.849
 20
21.5206
 11
81.8064
 21
21.3505
  0
LINE
  8
0
 10
81.8064
 20
21.3505
 11
81.7515
 21
21.1881
  0
LINE
  8
0
 10
81.7515
 20
21.1881
 11
81.6844
 21
21.0335
  0
LINE
  8
0
 10
81.6844
 20
21.0335
 11
81.605
 21
20.8866
  0
LINE
  8
0
 10
81.605
 20
20.8866
 11
81.5127
 21
20.7477
  0
LINE
  8
0
 10
81.5127
 20
20.7477
 11
81.4057
 21
20.6181
  0
LINE
  8
0
 10
81.4057
 20
20.6181
 11
81.2842
 21
20.4977
  0
LINE
  8
0
 10
81.2842
 20
20.4977
 11
81.148
 21
20.3866
  0
LINE
  8
0
 10
81.148
 20
20.3866
 11
80.9962
 21
20.2881
  0
LINE
  8
0
 10
80.9962
 20
20.2881
 11
80.827
 21
20.2054
  0
LINE
  8
0
 10
80.827
 20
20.2054
 11
80.6402
 21
20.1385
  0
LINE
  8
0
 10
80.6402
 20
20.1385
 11
80.436
 21
20.0876
  0
LINE
  8
0
 10
80.436
 20
20.0876
 11
80.2221
 21
20.0486
  0
LINE
  8
0
 10
80.2221
 20
20.0486
 11
80.0075
 21
20.0164
  0
LINE
  8
0
 10
80.0075
 20
20.0164
 11
79.7921
 21
19.9911
  0
LINE
  8
0
 10
79.7921
 20
19.9911
 11
79.576
 21
19.9726
  0
LINE
  8
0
 10
79.576
 20
19.9726
 11
79.3603
 21
19.9591
  0
LINE
  8
0
 10
79.3603
 20
19.9591
 11
79.1452
 21
19.9494
  0
LINE
  8
0
 10
79.1452
 20
19.9494
 11
78.9308
 21
19.9436
  0
LINE
  8
0
 10
78.9308
 20
19.9436
 11
78.717
 21
19.9416
  0
LINE
  8
0
 10
78.717
 20
19.9416
 11
77.035
 21
19.9416
  0
LINE
  8
0
 10
77.035
 20
19.9416
 11
76.9807
 21
19.9409
  0
LINE
  8
0
 10
76.9807
 20
19.9409
 11
76.915
 21
19.9386
  0
LINE
  8
0
 10
76.915
 20
19.9386
 11
76.8377
 21
19.9349
  0
LINE
  8
0
 10
76.8377
 20
19.9349
 11
76.749
 21
19.9296
  0
LINE
  8
0
 10
76.749
 20
19.9296
 11
76.6541
 21
19.9221
  0
LINE
  8
0
 10
76.6541
 20
19.9221
 11
76.5585
 21
19.9116
  0
LINE
  8
0
 10
76.5585
 20
19.9116
 11
76.4621
 21
19.8981
  0
LINE
  8
0
 10
76.4621
 20
19.8981
 11
76.365
 21
19.8816
  0
LINE
  8
0
 10
76.365
 20
19.8816
 11
76.2697
 21
19.8605
  0
LINE
  8
0
 10
76.2697
 20
19.8605
 11
76.179
 21
19.8341
  0
LINE
  8
0
 10
76.179
 20
19.8341
 11
76.0927
 21
19.8025
  0
LINE
  8
0
 10
76.0927
 20
19.8025
 11
76.011
 21
19.7656
  0
LINE
  8
0
 10
76.011
 20
19.7656
 11
75.9388
 21
19.7222
  0
LINE
  8
0
 10
75.9388
 20
19.7222
 11
75.8802
 21
19.6721
  0
LINE
  8
0
 10
75.8802
 20
19.6721
 11
75.8353
 21
19.6152
  0
LINE
  8
0
 10
75.8353
 20
19.6152
 11
75.804
 21
19.5516
  0
LINE
  8
0
 10
75.804
 20
19.5516
 11
74.988
 21
19.9416
  0
LINE
  8
0
 10
63.3
 20
19.9975
 11
63.3
 21
21.3984
  0
LINE
  8
0
 10
63.3
 20
21.3984
 11
64.117
 21
21.4845
  0
LINE
  8
0
 10
64.117
 20
21.4845
 11
72.77
 21
21.4845
  0
LINE
  8
0
 10
72.77
 20
21.4845
 11
72.77
 21
19.9975
  0
LINE
  8
0
 10
72.77
 20
19.9975
 11
63.3
 21
19.9975
  0
LINE
  8
0
 10
46.5365
 20
17.6754
 11
46.1183
 21
17.8885
  0
LINE
  8
0
 10
46.1183
 20
17.8885
 11
45.7865
 21
18.2203
  0
LINE
  8
0
 10
45.7865
 20
18.2203
 11
45.5734
 21
18.6385
  0
LINE
  8
0
 10
45.5734
 20
18.6385
 11
45.5
 21
19.102
  0
LINE
  8
0
 10
45.5
 20
19.102
 11
45.5734
 21
19.5655
  0
LINE
  8
0
 10
45.5734
 20
19.5655
 11
45.7865
 21
19.9837
  0
LINE
  8
0
 10
45.7865
 20
19.9837
 11
46.1183
 21
20.3155
  0
LINE
  8
0
 10
46.1183
 20
20.3155
 11
46.5365
 21
20.5286
  0
LINE
  8
0
 10
46.5365
 20
20.5286
 11
47
 21
20.602
  0
LINE
  8
0
 10
47
 20
20.602
 11
47.4635
 21
20.5286
  0
LINE
  8
0
 10
47.4635
 20
20.5286
 11
47.8817
 21
20.3155
  0
LINE
  8
0
 10
47.8817
 20
20.3155
 11
48.2135
 21
19.9837
  0
LINE
  8
0
 10
48.2135
 20
19.9837
 11
48.4266
 21
19.5655
  0
LINE
  8
0
 10
48.4266
 20
19.5655
 11
48.5
 21
19.102
  0
LINE
  8
0
 10
48.5
 20
19.102
 11
48.4266
 21
18.6385
  0
LINE
  8
0
 10
48.4266
 20
18.6385
 11
48.2135
 21
18.2203
  0
LINE
  8
0
 10
48.2135
 20
18.2203
 11
47.8817
 21
17.8885
  0
LINE
  8
0
 10
47.8817
 20
17.8885
 11
47.4635
 21
17.6754
  0
LINE
  8
0
 10
47.4635
 20
17.6754
 11
47
 21
17.602
  0
LINE
  8
0
 10
47
 20
17.602
 11
46.5365
 21
17.6754
  0
LINE
  8
0
 10
22.5365
 20
17.6754
 11
22.1183
 21
17.8885
  0
LINE
  8
0
 10
22.1183
 20
17.8885
 11
21.7865
 21
18.2203
  0
LINE
  8
0
 10
21.7865
 20
18.2203
 11
21.5734
 21
18.6385
  0
LINE
  8
0
 10
21.5734
 20
18.6385
 11
21.5
 21
19.102
  0
LINE
  8
0
 10
21.5
 20
19.102
 11
21.5734
 21
19.5655
  0
LINE
  8
0
 10
21.5734
 20
19.5655
 11
21.7865
 21
19.9837
  0
LINE
  8
0
 10
21.7865
 20
19.9837
 11
22.1183
 21
20.3155
  0
LINE
  8
0
 10
22.1183
 20
20.3155
 11
22.5365
 21
20.5286
  0
LINE
  8
0
 10
22.5365
 20
20.5286
 11
23
 21
20.602
  0
LINE
  8
0
 10
23
 20
20.602
 11
23.4635
 21
20.5286
  0
LINE
  8
0
 10
23.4635
 20
20.5286
 11
23.8817
 21
20.3155
  0
LINE
  8
0
 10
23.8817
 20
20.3155
 11
24.2135
 21
19.9837
  0
LINE
  8
0
 10
24.2135
 20
19.9837
 11
24.4266
 21
19.5655
  0
LINE
  8
0
 10
24.4266
 20
19.5655
 11
24.5
 21
19.102
  0
LINE
  8
0
 10
24.5
 20
19.102
 11
24.4266
 21
18.6385
  0
LINE
  8
0
 10
24.4266
 20
18.6385
 11
24.2135
 21
18.2203
  0
LINE
  8
0
 10
24.2135
 20
18.2203
 11
23.8817
 21
17.8885
  0
LINE
  8
0
 10
23.8817
 20
17.8885
 11
23.4635
 21
17.6754
  0
LINE
  8
0
 10
23.4635
 20
17.6754
 11
23
 21
17.602
  0
LINE
  8
0
 10
23
 20
17.602
 11
22.5365
 21
17.6754
  0
LINE
  8
0
 10
72.1922
 20
16.4908
 11
72.031
 21
16.5388
  0
LINE
  8
0
 10
72.031
 20
16.5388
 11
71.8842
 21
16.6189
  0
LINE
  8
0
 10
71.8842
 20
16.6189
 11
71.752
 21
16.7309
  0
LINE
  8
0
 10
71.752
 20
16.7309
 11
71.6426
 21
16.8657
  0
LINE
  8
0
 10
71.6426
 20
16.8657
 11
71.5645
 21
17.0143
  0
LINE
  8
0
 10
71.5645
 20
17.0143
 11
71.5176
 21
17.1767
  0
LINE
  8
0
 10
71.5176
 20
17.1767
 11
71.502
 21
17.3528
  0
LINE
  8
0
 10
71.502
 20
17.3528
 11
71.518
 21
17.5282
  0
LINE
  8
0
 10
71.518
 20
17.5282
 11
71.566
 21
17.6891
  0
LINE
  8
0
 10
71.566
 20
17.6891
 11
71.646
 21
17.8357
  0
LINE
  8
0
 10
71.646
 20
17.8357
 11
71.758
 21
17.9678
  0
LINE
  8
0
 10
71.758
 20
17.9678
 11
71.8921
 21
18.0772
  0
LINE
  8
0
 10
71.8921
 20
18.0772
 11
72.0385
 21
18.1553
  0
LINE
  8
0
 10
72.0385
 20
18.1553
 11
72.1971
 21
18.2022
  0
LINE
  8
0
 10
72.1971
 20
18.2022
 11
72.368
 21
18.2178
  0
LINE
  8
0
 10
72.368
 20
18.2178
 11
72.5437
 21
18.2018
  0
LINE
  8
0
 10
72.5437
 20
18.2018
 11
72.7057
 21
18.1538
  0
LINE
  8
0
 10
72.7057
 20
18.1538
 11
72.8542
 21
18.0738
  0
LINE
  8
0
 10
72.8542
 20
18.0738
 11
72.989
 21
17.9618
  0
LINE
  8
0
 10
72.989
 20
17.9618
 11
73.101
 21
17.8278
  0
LINE
  8
0
 10
73.101
 20
17.8278
 11
73.181
 21
17.6816
  0
LINE
  8
0
 10
73.181
 20
17.6816
 11
73.229
 21
17.5233
  0
LINE
  8
0
 10
73.229
 20
17.5233
 11
73.245
 21
17.3528
  0
LINE
  8
0
 10
73.245
 20
17.3528
 11
73.229
 21
17.1767
  0
LINE
  8
0
 10
73.229
 20
17.1767
 11
73.181
 21
17.0143
  0
LINE
  8
0
 10
73.181
 20
17.0143
 11
73.101
 21
16.8657
  0
LINE
  8
0
 10
73.101
 20
16.8657
 11
72.989
 21
16.7309
  0
LINE
  8
0
 10
72.989
 20
16.7309
 11
72.8542
 21
16.6189
  0
LINE
  8
0
 10
72.8542
 20
16.6189
 11
72.7057
 21
16.5388
  0
LINE
  8
0
 10
72.7057
 20
16.5388
 11
72.5437
 21
16.4908
  0
LINE
  8
0
 10
72.5437
 20
16.4908
 11
72.368
 21
16.4748
  0
LINE
  8
0
 10
72.368
 20
16.4748
 11
72.1922
 21
16.4908
  0
LINE
  8
0
 10
63.3
 20
16.6088
 11
63.3
 21
18.0958
  0
LINE
  8
0
 10
63.3
 20
18.0958
 11
70.174
 21
18.0958
  0
LINE
  8
0
 10
70.174
 20
18.0958
 11
70.174
 21
16.6088
  0
LINE
  8
0
 10
70.174
 20
16.6088
 11
63.3
 21
16.6088
  0
LINE
  8
0
 10
75
 20
16.2993
 11
75
 21
17.7743
  0
LINE
  8
0
 10
75
 20
17.7743
 11
81.874
 21
17.7743
  0
LINE
  8
0
 10
81.874
 20
17.7743
 11
81.874
 21
16.4583
  0
LINE
  8
0
 10
81.874
 20
16.4583
 11
81.167
 21
16.2993
  0
LINE
  8
0
 10
81.167
 20
16.2993
 11
75
 21
16.2993
  0
LINE
  8
0
 10
80.387
 20
13.9103
 11
80.4302
 21
14.0903
  0
LINE
  8
0
 10
80.4302
 20
14.0903
 11
80.463
 21
14.2885
  0
LINE
  8
0
 10
80.463
 20
14.2885
 11
80.4852
 21
14.5048
  0
LINE
  8
0
 10
80.4852
 20
14.5048
 11
80.497
 21
14.7393
  0
LINE
  8
0
 10
80.497
 20
14.7393
 11
80.4943
 21
14.8737
  0
LINE
  8
0
 10
80.4943
 20
14.8737
 11
80.4862
 21
15.009
  0
LINE
  8
0
 10
80.4862
 20
15.009
 11
80.4728
 21
15.1452
  0
LINE
  8
0
 10
80.4728
 20
15.1452
 11
80.454
 21
15.2823
  0
LINE
  8
0
 10
80.454
 20
15.2823
 11
80.4299
 21
15.4173
  0
LINE
  8
0
 10
80.4299
 20
15.4173
 11
80.4005
 21
15.5485
  0
LINE
  8
0
 10
80.4005
 20
15.5485
 11
80.3659
 21
15.6758
  0
LINE
  8
0
 10
80.3659
 20
15.6758
 11
80.326
 21
15.7993
  0
LINE
  8
0
 10
80.326
 20
15.7993
 11
81.569
 21
15.7993
  0
LINE
  8
0
 10
81.569
 20
15.7993
 11
81.6495
 21
15.6396
  0
LINE
  8
0
 10
81.6495
 20
15.6396
 11
81.72
 21
15.4648
  0
LINE
  8
0
 10
81.72
 20
15.4648
 11
81.7805
 21
15.2746
  0
LINE
  8
0
 10
81.7805
 20
15.2746
 11
81.831
 21
15.0693
  0
LINE
  8
0
 10
81.831
 20
15.0693
 11
81.8712
 21
14.8367
  0
LINE
  8
0
 10
81.8712
 20
14.8367
 11
81.9
 21
14.566
  0
LINE
  8
0
 10
81.9
 20
14.566
 11
81.9172
 21
14.2572
  0
LINE
  8
0
 10
81.9172
 20
14.2572
 11
81.923
 21
13.9103
  0
LINE
  8
0
 10
81.923
 20
13.9103
 11
80.387
 21
13.9103
  0
LINE
  8
0
 10
66.627
 20
11.6051
 11
66.627
 21
11.8731
  0
LINE
  8
0
 10
66.627
 20
11.8731
 11
66.6239
 21
11.9962
  0
LINE
  8
0
 10
66.6239
 20
11.9962
 11
66.6147
 21
12.1226
  0
LINE
  8
0
 10
66.6147
 20
12.1226
 11
66.5994
 21
12.2522
  0
LINE
  8
0
 10
66.5994
 20
12.2522
 11
66.578
 21
12.3851
  0
LINE
  8
0
 10
66.578
 20
12.3851
 11
66.5486
 21
12.5168
  0
LINE
  8
0
 10
66.5486
 20
12.5168
 11
66.5085
 21
12.6441
  0
LINE
  8
0
 10
66.5085
 20
12.6441
 11
66.4576
 21
12.7668
  0
LINE
  8
0
 10
66.4576
 20
12.7668
 11
66.396
 21
12.8851
  0
LINE
  8
0
 10
66.396
 20
12.8851
 11
66.3217
 21
12.9957
  0
LINE
  8
0
 10
66.3217
 20
12.9957
 11
66.233
 21
13.0963
  0
LINE
  8
0
 10
66.233
 20
13.0963
 11
66.1297
 21
13.1871
  0
LINE
  8
0
 10
66.1297
 20
13.1871
 11
66.012
 21
13.2681
  0
LINE
  8
0
 10
66.012
 20
13.2681
 11
65.8783
 21
13.3346
  0
LINE
  8
0
 10
65.8783
 20
13.3346
 11
65.727
 21
13.3821
  0
LINE
  8
0
 10
65.727
 20
13.3821
 11
65.5582
 21
13.4106
  0
LINE
  8
0
 10
65.5582
 20
13.4106
 11
65.372
 21
13.4201
  0
LINE
  8
0
 10
65.372
 20
13.4201
 11
65.1151
 21
13.406
  0
LINE
  8
0
 10
65.1151
 20
13.406
 11
64.8932
 21
13.3638
  0
LINE
  8
0
 10
64.8932
 20
13.3638
 11
64.7066
 21
13.2935
  0
LINE
  8
0
 10
64.7066
 20
13.2935
 11
64.555
 21
13.1951
  0
LINE
  8
0
 10
64.555
 20
13.1951
 11
64.4347
 21
13.07
  0
LINE
  8
0
 10
64.4347
 20
13.07
 11
64.3418
 21
12.9196
  0
LINE
  8
0
 10
64.3418
 20
12.9196
 11
64.2762
 21
12.744
  0
LINE
  8
0
 10
64.2762
 20
12.744
 11
64.238
 21
12.5431
  0
LINE
  8
0
 10
64.238
 20
12.5431
 11
63.251
 21
12.5431
  0
LINE
  8
0
 10
63.251
 20
12.5431
 11
63.2458
 21
12.5714
  0
LINE
  8
0
 10
63.2458
 20
12.5714
 11
63.242
 21
12.6071
  0
LINE
  8
0
 10
63.242
 20
12.6071
 11
63.2398
 21
12.6503
  0
LINE
  8
0
 10
63.2398
 20
12.6503
 11
63.239
 21
12.7011
  0
LINE
  8
0
 10
63.239
 20
12.7011
 11
63.2458
 21
12.9067
  0
LINE
  8
0
 10
63.2458
 20
12.9067
 11
63.2663
 21
13.1083
  0
LINE
  8
0
 10
63.2663
 20
13.1083
 11
63.3003
 21
13.3062
  0
LINE
  8
0
 10
63.3003
 20
13.3062
 11
63.348
 21
13.5001
  0
LINE
  8
0
 10
63.348
 20
13.5001
 11
63.4114
 21
13.6864
  0
LINE
  8
0
 10
63.4114
 20
13.6864
 11
63.4915
 21
13.8613
  0
LINE
  8
0
 10
63.4915
 20
13.8613
 11
63.5884
 21
14.0249
  0
LINE
  8
0
 10
63.5884
 20
14.0249
 11
63.702
 21
14.1771
  0
LINE
  8
0
 10
63.702
 20
14.1771
 11
63.8339
 21
14.3152
  0
LINE
  8
0
 10
63.8339
 20
14.3152
 11
63.9855
 21
14.4373
  0
LINE
  8
0
 10
63.9855
 20
14.4373
 11
64.1569
 21
14.5437
  0
LINE
  8
0
 10
64.1569
 20
14.5437
 11
64.348
 21
14.6341
  0
LINE
  8
0
 10
64.348
 20
14.6341
 11
64.5604
 21
14.7058
  0
LINE
  8
0
 10
64.5604
 20
14.7058
 11
64.7957
 21
14.7571
  0
LINE
  8
0
 10
64.7957
 20
14.7571
 11
65.0539
 21
14.7878
  0
LINE
  8
0
 10
65.0539
 20
14.7878
 11
65.335
 21
14.7981
  0
LINE
  8
0
 10
65.335
 20
14.7981
 11
65.6059
 21
14.7832
  0
LINE
  8
0
 10
65.6059
 20
14.7832
 11
65.8577
 21
14.7386
  0
LINE
  8
0
 10
65.8577
 20
14.7386
 11
66.0904
 21
14.6642
  0
LINE
  8
0
 10
66.0904
 20
14.6642
 11
66.304
 21
14.5601
  0
LINE
  8
0
 10
66.304
 20
14.5601
 11
66.4993
 21
14.4328
  0
LINE
  8
0
 10
66.4993
 20
14.4328
 11
66.6762
 21
14.2888
  0
LINE
  8
0
 10
66.6762
 20
14.2888
 11
66.8348
 21
14.1283
  0
LINE
  8
0
 10
66.8348
 20
14.1283
 11
66.975
 21
13.9511
  0
LINE
  8
0
 10
66.975
 20
13.9511
 11
67.0976
 21
13.7587
  0
LINE
  8
0
 10
67.0976
 20
13.7587
 11
67.2035
 21
13.5533
  0
LINE
  8
0
 10
67.2035
 20
13.5533
 11
67.2926
 21
13.3352
  0
LINE
  8
0
 10
67.2926
 20
13.3352
 11
67.365
 21
13.1041
  0
LINE
  8
0
 10
67.365
 20
13.1041
 11
67.421
 21
12.8654
  0
LINE
  8
0
 10
67.421
 20
12.8654
 11
67.461
 21
12.6254
  0
LINE
  8
0
 10
67.461
 20
12.6254
 11
67.485
 21
12.3839
  0
LINE
  8
0
 10
67.485
 20
12.3839
 11
67.493
 21
12.1411
  0
LINE
  8
0
 10
67.493
 20
12.1411
 11
67.493
 21
11.6051
  0
LINE
  8
0
 10
67.493
 20
11.6051
 11
66.627
 21
11.6051
  0
LINE
  8
0
 10
63.288
 20
9.6301
 11
63.2926
 21
9.71072
  0
LINE
  8
0
 10
63.2926
 20
9.71072
 11
63.3062
 21
9.79359
  0
LINE
  8
0
 10
63.3062
 20
9.79359
 11
63.3291
 21
9.87872
  0
LINE
  8
0
 10
63.3291
 20
9.87872
 11
63.361
 21
9.96609
  0
LINE
  8
0
 10
63.361
 20
9.96609
 11
63.4013
 21
10.0534
  0
LINE
  8
0
 10
63.4013
 20
10.0534
 11
63.4492
 21
10.1393
  0
LINE
  8
0
 10
63.4492
 20
10.1393
 11
63.5048
 21
10.2239
  0
LINE
  8
0
 10
63.5048
 20
10.2239
 11
63.568
 21
10.3071
  0
LINE
  8
0
 10
63.568
 20
10.3071
 11
63.6369
 21
10.3861
  0
LINE
  8
0
 10
63.6369
 20
10.3861
 11
63.7095
 21
10.4591
  0
LINE
  8
0
 10
63.7095
 20
10.4591
 11
63.7859
 21
10.5261
  0
LINE
  8
0
 10
63.7859
 20
10.5261
 11
63.866
 21
10.5871
  0
LINE
  8
0
 10
63.866
 20
10.5871
 11
63.9504
 21
10.6417
  0
LINE
  8
0
 10
63.9504
 20
10.6417
 11
64.0385
 21
10.6893
  0
LINE
  8
0
 10
64.0385
 20
10.6893
 11
64.1304
 21
10.7302
  0
LINE
  8
0
 10
64.1304
 20
10.7302
 11
64.226
 21
10.7641
  0
LINE
  8
0
 10
64.226
 20
10.7641
 11
64.0781
 21
10.8395
  0
LINE
  8
0
 10
64.0781
 20
10.8395
 11
63.9385
 21
10.9448
  0
LINE
  8
0
 10
63.9385
 20
10.9448
 11
63.8071
 21
11.08
  0
LINE
  8
0
 10
63.8071
 20
11.08
 11
63.684
 21
11.2451
  0
LINE
  8
0
 10
63.684
 20
11.2451
 11
63.5731
 21
11.43
  0
LINE
  8
0
 10
63.5731
 20
11.43
 11
63.4782
 21
11.6246
  0
LINE
  8
0
 10
63.4782
 20
11.6246
 11
63.3996
 21
11.829
  0
LINE
  8
0
 10
63.3996
 20
11.829
 11
63.337
 21
12.0431
  0
LINE
  8
0
 10
63.337
 20
12.0431
 11
64.263
 21
12.0431
  0
LINE
  8
0
 10
64.263
 20
12.0431
 11
64.3007
 21
11.9005
  0
LINE
  8
0
 10
64.3007
 20
11.9005
 11
64.3528
 21
11.7646
  0
LINE
  8
0
 10
64.3528
 20
11.7646
 11
64.4192
 21
11.6355
  0
LINE
  8
0
 10
64.4192
 20
11.6355
 11
64.5
 21
11.5131
  0
LINE
  8
0
 10
64.5
 20
11.5131
 11
64.5927
 21
11.3983
  0
LINE
  8
0
 10
64.5927
 20
11.3983
 11
64.6937
 21
11.2921
  0
LINE
  8
0
 10
64.6937
 20
11.2921
 11
64.8032
 21
11.1943
  0
LINE
  8
0
 10
64.8032
 20
11.1943
 11
64.921
 21
11.1051
  0
LINE
  8
0
 10
64.921
 20
11.1051
 11
67.493
 21
11.1051
  0
LINE
  8
0
 10
67.493
 20
11.1051
 11
67.7762
 21
11.1089
  0
LINE
  8
0
 10
67.7762
 20
11.1089
 11
68.029
 21
11.1203
  0
LINE
  8
0
 10
68.029
 20
11.1203
 11
68.2513
 21
11.1394
  0
LINE
  8
0
 10
68.2513
 20
11.1394
 11
68.443
 21
11.1661
  0
LINE
  8
0
 10
68.443
 20
11.1661
 11
68.6081
 21
11.2019
  0
LINE
  8
0
 10
68.6081
 20
11.2019
 11
68.7495
 21
11.2483
  0
LINE
  8
0
 10
68.7495
 20
11.2483
 11
68.8671
 21
11.3054
  0
LINE
  8
0
 10
68.8671
 20
11.3054
 11
68.961
 21
11.3731
  0
LINE
  8
0
 10
68.961
 20
11.3731
 11
69.0358
 21
11.4503
  0
LINE
  8
0
 10
69.0358
 20
11.4503
 11
69.0952
 21
11.5361
  0
LINE
  8
0
 10
69.0952
 20
11.5361
 11
69.1393
 21
11.6303
  0
LINE
  8
0
 10
69.1393
 20
11.6303
 11
69.168
 21
11.7331
  0
LINE
  8
0
 10
69.168
 20
11.7331
 11
69.1868
 21
11.8445
  0
LINE
  8
0
 10
69.1868
 20
11.8445
 11
69.2002
 21
11.9659
  0
LINE
  8
0
 10
69.2002
 20
11.9659
 11
69.2083
 21
12.097
  0
LINE
  8
0
 10
69.2083
 20
12.097
 11
69.211
 21
12.2381
  0
LINE
  8
0
 10
69.211
 20
12.2381
 11
69.2068
 21
12.3702
  0
LINE
  8
0
 10
69.2068
 20
12.3702
 11
69.1942
 21
12.4986
  0
LINE
  8
0
 10
69.1942
 20
12.4986
 11
69.1733
 21
12.6232
  0
LINE
  8
0
 10
69.1733
 20
12.6232
 11
69.144
 21
12.7441
  0
LINE
  8
0
 10
69.144
 20
12.7441
 11
69.1089
 21
12.8608
  0
LINE
  8
0
 10
69.1089
 20
12.8608
 11
69.0707
 21
12.9728
  0
LINE
  8
0
 10
69.0707
 20
12.9728
 11
69.0294
 21
13.0803
  0
LINE
  8
0
 10
69.0294
 20
13.0803
 11
68.985
 21
13.1831
  0
LINE
  8
0
 10
68.985
 20
13.1831
 11
68.9383
 21
13.2806
  0
LINE
  8
0
 10
68.9383
 20
13.2806
 11
68.8893
 21
13.3721
  0
LINE
  8
0
 10
68.8893
 20
13.3721
 11
68.8378
 21
13.4576
  0
LINE
  8
0
 10
68.8378
 20
13.4576
 11
68.784
 21
13.5371
  0
LINE
  8
0
 10
68.784
 20
13.5371
 11
68.7325
 21
13.6082
  0
LINE
  8
0
 10
68.7325
 20
13.6082
 11
68.687
 21
13.6693
  0
LINE
  8
0
 10
68.687
 20
13.6693
 11
68.6475
 21
13.7207
  0
LINE
  8
0
 10
68.6475
 20
13.7207
 11
68.614
 21
13.7621
  0
LINE
  8
0
 10
68.614
 20
13.7621
 11
69.455
 21
14.3101
  0
LINE
  8
0
 10
69.455
 20
14.3101
 11
69.5224
 21
14.2415
  0
LINE
  8
0
 10
69.5224
 20
14.2415
 11
69.5905
 21
14.1578
  0
LINE
  8
0
 10
69.5905
 20
14.1578
 11
69.6594
 21
14.059
  0
LINE
  8
0
 10
69.6594
 20
14.059
 11
69.729
 21
13.9451
  0
LINE
  8
0
 10
69.729
 20
13.9451
 11
69.7971
 21
13.8185
  0
LINE
  8
0
 10
69.7971
 20
13.8185
 11
69.8613
 21
13.6828
  0
LINE
  8
0
 10
69.8613
 20
13.6828
 11
69.9216
 21
13.538
  0
LINE
  8
0
 10
69.9216
 20
13.538
 11
69.978
 21
13.3841
  0
LINE
  8
0
 10
69.978
 20
13.3841
 11
70.0303
 21
13.2222
  0
LINE
  8
0
 10
70.0303
 20
13.2222
 11
70.0772
 21
13.0536
  0
LINE
  8
0
 10
70.0772
 20
13.0536
 11
70.1188
 21
12.8782
  0
LINE
  8
0
 10
70.1188
 20
12.8782
 11
70.155
 21
12.6961
  0
LINE
  8
0
 10
70.155
 20
12.6961
 11
70.1847
 21
12.5082
  0
LINE
  8
0
 10
70.1847
 20
12.5082
 11
70.206
 21
12.3163
  0
LINE
  8
0
 10
70.206
 20
12.3163
 11
70.2188
 21
12.1207
  0
LINE
  8
0
 10
70.2188
 20
12.1207
 11
70.223
 21
11.9211
  0
LINE
  8
0
 10
70.223
 20
11.9211
 11
70.2184
 21
11.7397
  0
LINE
  8
0
 10
70.2184
 20
11.7397
 11
70.2045
 21
11.5606
  0
LINE
  8
0
 10
70.2045
 20
11.5606
 11
70.1814
 21
11.3837
  0
LINE
  8
0
 10
70.1814
 20
11.3837
 11
70.149
 21
11.2091
  0
LINE
  8
0
 10
70.149
 20
11.2091
 11
70.1064
 21
11.039
  0
LINE
  8
0
 10
70.1064
 20
11.039
 11
70.0515
 21
10.8766
  0
LINE
  8
0
 10
70.0515
 20
10.8766
 11
69.9844
 21
10.722
  0
LINE
  8
0
 10
69.9844
 20
10.722
 11
69.905
 21
10.5751
  0
LINE
  8
0
 10
69.905
 20
10.5751
 11
69.8127
 21
10.4362
  0
LINE
  8
0
 10
69.8127
 20
10.4362
 11
69.7057
 21
10.3066
  0
LINE
  8
0
 10
69.7057
 20
10.3066
 11
69.5842
 21
10.1862
  0
LINE
  8
0
 10
69.5842
 20
10.1862
 11
69.448
 21
10.0751
  0
LINE
  8
0
 10
69.448
 20
10.0751
 11
69.2962
 21
9.97653
  0
LINE
  8
0
 10
69.2962
 20
9.97653
 11
69.127
 21
9.89384
  0
LINE
  8
0
 10
69.127
 20
9.89384
 11
68.9402
 21
9.82703
  0
LINE
  8
0
 10
68.9402
 20
9.82703
 11
68.736
 21
9.77609
  0
LINE
  8
0
 10
68.736
 20
9.77609
 11
68.5221
 21
9.73703
  0
LINE
  8
0
 10
68.5221
 20
9.73703
 11
68.3075
 21
9.70485
  0
LINE
  8
0
 10
68.3075
 20
9.70485
 11
68.0921
 21
9.67953
  0
LINE
  8
0
 10
68.0921
 20
9.67953
 11
67.876
 21
9.66109
  0
LINE
  8
0
 10
67.876
 20
9.66109
 11
67.6603
 21
9.64754
  0
LINE
  8
0
 10
67.6603
 20
9.64754
 11
67.4453
 21
9.63785
  0
LINE
  8
0
 10
67.4453
 20
9.63785
 11
67.2308
 21
9.63203
  0
LINE
  8
0
 10
67.2308
 20
9.63203
 11
67.017
 21
9.6301
  0
LINE
  8
0
 10
67.017
 20
9.6301
 11
65.335
 21
9.6301
  0
LINE
  8
0
 10
65.335
 20
9.6301
 11
65.2807
 21
9.62935
  0
LINE
  8
0
 10
65.2807
 20
9.62935
 11
65.215
 21
9.62709
  0
LINE
  8
0
 10
65.215
 20
9.62709
 11
65.1377
 21
9.62334
  0
LINE
  8
0
 10
65.1377
 20
9.62334
 11
65.049
 21
9.61809
  0
LINE
  8
0
 10
65.049
 20
9.61809
 11
64.9541
 21
9.6106
  0
LINE
  8
0
 10
64.9541
 20
9.6106
 11
64.8585
 21
9.6001
  0
LINE
  8
0
 10
64.8585
 20
9.6001
 11
64.7621
 21
9.58659
  0
LINE
  8
0
 10
64.7621
 20
9.58659
 11
64.665
 21
9.5701
  0
LINE
  8
0
 10
64.665
 20
9.5701
 11
64.5697
 21
9.54897
  0
LINE
  8
0
 10
64.5697
 20
9.54897
 11
64.479
 21
9.5226
  0
LINE
  8
0
 10
64.479
 20
9.5226
 11
64.3927
 21
9.49097
  0
LINE
  8
0
 10
64.3927
 20
9.49097
 11
64.311
 21
9.45409
  0
LINE
  8
0
 10
64.311
 20
9.45409
 11
64.2388
 21
9.41072
  0
LINE
  8
0
 10
64.2388
 20
9.41072
 11
64.1803
 21
9.3606
  0
LINE
  8
0
 10
64.1803
 20
9.3606
 11
64.1353
 21
9.30371
  0
LINE
  8
0
 10
64.1353
 20
9.30371
 11
64.104
 21
9.2401
  0
LINE
  8
0
 10
64.104
 20
9.2401
 11
63.288
 21
9.6301
  0
LINE
  8
0
 10
76.84
 20
9.52087
 11
75.646
 21
10.0199
  0
LINE
  8
0
 10
75.646
 20
10.0199
 11
81.874
 21
12.5799
  0
LINE
  8
0
 10
81.874
 20
12.5799
 11
81.874
 21
11.1049
  0
LINE
  8
0
 10
81.874
 20
11.1049
 11
77.255
 21
9.34987
  0
LINE
  8
0
 10
77.255
 20
9.34987
 11
76.84
 21
9.52087
  0
LINE
  8
0
 10
81.0036
 20
6.15375
 11
80.1842
 21
6.46136
  0
LINE
  8
0
 10
80.1842
 20
6.46136
 11
79.4161
 21
6.75075
  0
LINE
  8
0
 10
79.4161
 20
6.75075
 11
78.699
 21
7.02187
  0
LINE
  8
0
 10
78.699
 20
7.02187
 11
78.0288
 21
7.2755
  0
LINE
  8
0
 10
78.0288
 20
7.2755
 11
77.4012
 21
7.51236
  0
LINE
  8
0
 10
77.4012
 20
7.51236
 11
76.8163
 21
7.7325
  0
LINE
  8
0
 10
76.8163
 20
7.7325
 11
76.274
 21
7.93587
  0
LINE
  8
0
 10
76.274
 20
7.93587
 11
75.7732
 21
8.12518
  0
LINE
  8
0
 10
75.7732
 20
8.12518
 11
75.3127
 21
8.30312
  0
LINE
  8
0
 10
75.3127
 20
8.30312
 11
74.8927
 21
8.46968
  0
LINE
  8
0
 10
74.8927
 20
8.46968
 11
74.513
 21
8.62486
  0
LINE
  8
0
 10
74.513
 20
8.62486
 11
74.1679
 21
8.77087
  0
LINE
  8
0
 10
74.1679
 20
8.77087
 11
73.8528
 21
8.91087
  0
LINE
  8
0
 10
73.8528
 20
8.91087
 11
73.5674
 21
9.04486
  0
LINE
  8
0
 10
73.5674
 20
9.04486
 11
73.312
 21
9.17287
  0
LINE
  8
0
 10
73.312
 20
9.17287
 11
73.0844
 21
9.29599
  0
LINE
  8
0
 10
73.0844
 20
9.29599
 11
72.8828
 21
9.41536
  0
LINE
  8
0
 10
72.8828
 20
9.41536
 11
72.7069
 21
9.53099
  0
LINE
  8
0
 10
72.7069
 20
9.53099
 11
72.557
 21
9.64287
  0
LINE
  8
0
 10
72.557
 20
9.64287
 11
72.4276
 21
9.75317
  0
LINE
  8
0
 10
72.4276
 20
9.75317
 11
72.3143
 21
9.86511
  0
LINE
  8
0
 10
72.3143
 20
9.86511
 11
72.2171
 21
9.97868
  0
LINE
  8
0
 10
72.2171
 20
9.97868
 11
72.136
 21
10.0939
  0
LINE
  8
0
 10
72.136
 20
10.0939
 11
72.0703
 21
10.2121
  0
LINE
  8
0
 10
72.0703
 20
10.2121
 11
72.019
 21
10.3356
  0
LINE
  8
0
 10
72.019
 20
10.3356
 11
71.9823
 21
10.4646
  0
LINE
  8
0
 10
71.9823
 20
10.4646
 11
71.96
 21
10.5989
  0
LINE
  8
0
 10
71.96
 20
10.5989
 11
71.9464
 21
10.7409
  0
LINE
  8
0
 10
71.9464
 20
10.7409
 11
71.9368
 21
10.8929
  0
LINE
  8
0
 10
71.9368
 20
10.8929
 11
71.9309
 21
11.0549
  0
LINE
  8
0
 10
71.9309
 20
11.0549
 11
71.929
 21
11.2269
  0
LINE
  8
0
 10
71.929
 20
11.2269
 11
71.9309
 21
11.2841
  0
LINE
  8
0
 10
71.9309
 20
11.2841
 11
71.9368
 21
11.3459
  0
LINE
  8
0
 10
71.9368
 20
11.3459
 11
71.9464
 21
11.4121
  0
LINE
  8
0
 10
71.9464
 20
11.4121
 11
71.96
 21
11.4829
  0
LINE
  8
0
 10
71.96
 20
11.4829
 11
71.9758
 21
11.5555
  0
LINE
  8
0
 10
71.9758
 20
11.5555
 11
71.9933
 21
11.6274
  0
LINE
  8
0
 10
71.9933
 20
11.6274
 11
72.0123
 21
11.6985
  0
LINE
  8
0
 10
72.0123
 20
11.6985
 11
72.033
 21
11.7689
  0
LINE
  8
0
 10
72.033
 20
11.7689
 11
72.0541
 21
11.837
  0
LINE
  8
0
 10
72.0541
 20
11.837
 11
72.0753
 21
11.9014
  0
LINE
  8
0
 10
72.0753
 20
11.9014
 11
72.0966
 21
11.962
  0
LINE
  8
0
 10
72.0966
 20
11.962
 11
72.118
 21
12.0189
  0
LINE
  8
0
 10
72.118
 20
12.0189
 11
72.1371
 21
12.0692
  0
LINE
  8
0
 10
72.1371
 20
12.0692
 11
72.1525
 21
12.1104
  0
LINE
  8
0
 10
72.1525
 20
12.1104
 11
72.1641
 21
12.1422
  0
LINE
  8
0
 10
72.1641
 20
12.1422
 11
72.172
 21
12.1649
  0
LINE
  8
0
 10
72.172
 20
12.1649
 11
72.2804
 21
12.1408
  0
LINE
  8
0
 10
72.2804
 20
12.1408
 11
72.3858
 21
12.1166
  0
LINE
  8
0
 10
72.3858
 20
12.1166
 11
72.4879
 21
12.0923
  0
LINE
  8
0
 10
72.4879
 20
12.0923
 11
72.587
 21
12.0679
  0
LINE
  8
0
 10
72.587
 20
12.0679
 11
72.6709
 21
12.0491
  0
LINE
  8
0
 10
72.6709
 20
12.0491
 11
72.7528
 21
12.0296
  0
LINE
  8
0
 10
72.7528
 20
12.0296
 11
72.8324
 21
12.0096
  0
LINE
  8
0
 10
72.8324
 20
12.0096
 11
72.91
 21
11.9889
  0
LINE
  8
0
 10
72.91
 20
11.9889
 11
72.9803
 21
11.9686
  0
LINE
  8
0
 10
72.9803
 20
11.9686
 11
73.0393
 21
11.9506
  0
LINE
  8
0
 10
73.0393
 20
11.9506
 11
73.0868
 21
11.9351
  0
LINE
  8
0
 10
73.0868
 20
11.9351
 11
73.123
 21
11.9219
  0
LINE
  8
0
 10
73.123
 20
11.9219
 11
73.1192
 21
11.8664
  0
LINE
  8
0
 10
73.1192
 20
11.8664
 11
73.1078
 21
11.7981
  0
LINE
  8
0
 10
73.1078
 20
11.7981
 11
73.0887
 21
11.7169
  0
LINE
  8
0
 10
73.0887
 20
11.7169
 11
73.0353
 21
11.5288
  0
LINE
  8
0
 10
73.0353
 20
11.5288
 11
73.0163
 21
11.4476
  0
LINE
  8
0
 10
73.0163
 20
11.4476
 11
73.0048
 21
11.3793
  0
LINE
  8
0
 10
73.0048
 20
11.3793
 11
73.001
 21
11.3239
  0
LINE
  8
0
 10
73.001
 20
11.3239
 11
73.0022
 21
11.229
  0
LINE
  8
0
 10
73.0022
 20
11.229
 11
73.0058
 21
11.1396
  0
LINE
  8
0
 10
73.0058
 20
11.1396
 11
73.0117
 21
11.0556
  0
LINE
  8
0
 10
73.0117
 20
11.0556
 11
73.02
 21
10.9769
  0
LINE
  8
0
 10
73.02
 20
10.9769
 11
73.0336
 21
10.9027
  0
LINE
  8
0
 10
73.0336
 20
10.9027
 11
73.0565
 21
10.8324
  0
LINE
  8
0
 10
73.0565
 20
10.8324
 11
73.0886
 21
10.7657
  0
LINE
  8
0
 10
73.0886
 20
10.7657
 11
73.13
 21
10.7029
  0
LINE
  8
0
 10
73.13
 20
10.7029
 11
73.1809
 21
10.6427
  0
LINE
  8
0
 10
73.1809
 20
10.6427
 11
73.2425
 21
10.5841
  0
LINE
  8
0
 10
73.2425
 20
10.5841
 11
73.3149
 21
10.5272
  0
LINE
  8
0
 10
73.3149
 20
10.5272
 11
73.398
 21
10.4719
  0
LINE
  8
0
 10
73.398
 20
10.4719
 11
73.4956
 21
10.4154
  0
LINE
  8
0
 10
73.4956
 20
10.4154
 11
73.6123
 21
10.3559
  0
LINE
  8
0
 10
73.6123
 20
10.3559
 11
73.7481
 21
10.2934
  0
LINE
  8
0
 10
73.7481
 20
10.2934
 11
73.903
 21
10.2279
  0
LINE
  8
0
 10
73.903
 20
10.2279
 11
75
 21
9.76387
  0
LINE
  8
0
 10
75
 20
9.76387
 11
81.874
 21
7.31487
  0
LINE
  8
0
 10
81.874
 20
7.31487
 11
81.874
 21
5.82787
  0
LINE
  8
0
 10
81.874
 20
5.82787
 11
81.0036
 21
6.15375
  0
LINE
  8
0
 10
60.0875
 20
1.1244
 11
59.6693
 21
1.33746
  0
LINE
  8
0
 10
59.6693
 20
1.33746
 11
59.3375
 21
1.66931
  0
LINE
  8
0
 10
59.3375
 20
1.66931
 11
59.1244
 21
2.08746
  0
LINE
  8
0
 10
59.1244
 20
2.08746
 11
59.051
 21
2.55099
  0
LINE
  8
0
 10
59.051
 20
2.55099
 11
59.1244
 21
3.01451
  0
LINE
  8
0
 10
59.1244
 20
3.01451
 11
59.3375
 21
3.43266
  0
LINE
  8
0
 10
59.3375
 20
3.43266
 11
59.6693
 21
3.76451
  0
LINE
  8
0
 10
59.6693
 20
3.76451
 11
60.0875
 21
3.97757
  0
LINE
  8
0
 10
60.0875
 20
3.97757
 11
60.551
 21
4.05099
  0
LINE
  8
0
 10
60.551
 20
4.05099
 11
61.0145
 21
3.97757
  0
LINE
  8
0
 10
61.0145
 20
3.97757
 11
61.4327
 21
3.76451
  0
LINE
  8
0
 10
61.4327
 20
3.76451
 11
61.7645
 21
3.43266
  0
LINE
  8
0
 10
61.7645
 20
3.43266
 11
61.9776
 21
3.01451
  0
LINE
  8
0
 10
61.9776
 20
3.01451
 11
62.051
 21
2.55099
  0
LINE
  8
0
 10
62.051
 20
2.55099
 11
61.9776
 21
2.08746
  0
LINE
  8
0
 10
61.9776
 20
2.08746
 11
61.7645
 21
1.66931
  0
LINE
  8
0
 10
61.7645
 20
1.66931
 11
61.4327
 21
1.33746
  0
LINE
  8
0
 10
61.4327
 20
1.33746
 11
61.0145
 21
1.1244
  0
LINE
  8
0
 10
61.0145
 20
1.1244
 11
60.551
 21
1.05099
  0
LINE
  8
0
 10
60.551
 20
1.05099
 11
60.0875
 21
1.1244
  0
LINE
  8
0
 10
2.08746
 20
1.1244
 11
1.66931
 21
1.33746
  0
LINE
  8
0
 10
1.66931
 20
1.33746
 11
1.33746
 21
1.66931
  0
LINE
  8
0
 10
1.33746
 20
1.66931
 11
1.1244
 21
2.08746
  0
LINE
  8
0
 10
1.1244
 20
2.08746
 11
1.05099
 21
2.55099
  0
LINE
  8
0
 10
1.05099
 20
2.55099
 11
1.1244
 21
3.01451
  0
LINE
  8
0
 10
1.1244
 20
3.01451
 11
1.33746
 21
3.43266
  0
LINE
  8
0
 10
1.33746
 20
3.43266
 11
1.66931
 21
3.76451
  0
LINE
  8
0
 10
1.66931
 20
3.76451
 11
2.08746
 21
3.97757
  0
LINE
  8
0
 10
2.08746
 20
3.97757
 11
2.55099
 21
4.05099
  0
LINE
  8
0
 10
2.55099
 20
4.05099
 11
3.01451
 21
3.97757
  0
LINE
  8
0
 10
3.01451
 20
3.97757
 11
3.43266
 21
3.76451
  0
LINE
  8
0
 10
3.43266
 20
3.76451
 11
3.76451
 21
3.43266
  0
LINE
  8
0
 10
3.76451
 20
3.43266
 11
3.97757
 21
3.01451
  0
LINE
  8
0
 10
3.97757
 20
3.01451
 11
4.05099
 21
2.55099
  0
LINE
  8
0
 10
4.05099
 20
2.55099
 11
3.97757
 21
2.08746
  0
LINE
  8
0
 10
3.97757
 20
2.08746
 11
3.76451
 21
1.66931
  0
LINE
  8
0
 10
3.76451
 20
1.66931
 11
3.43266
 21
1.33746
  0
LINE
  8
0
 10
3.43266
 20
1.33746
 11
3.01451
 21
1.1244
  0
LINE
  8
0
 10
3.01451
 20
1.1244
 11
2.55099
 21
1.05099
  0
LINE
  8
0
 10
2.55099
 20
1.05099
 11
2.08746
 21
1.1244
  0
ENDSEC
  0
SECTION
  2
OBJECTS
  0
DICTIONARY
  0
ENDSEC
  0
EOF
